<svg xmlns="http://www.w3.org/2000/svg" viewBox="0 0 1600 1200" preserveAspectRatio="xMidYMid slice">
  <style>
    .contour { fill: none; stroke: #1c2523; stroke-width: 1.15; stroke-linecap: round; stroke-linejoin: round; vector-effect: non-scaling-stroke; }
    .contour-major { stroke-width: 2.1; }
    .contour-dashed { stroke-width: 2.25; stroke-dasharray: 1 8; }
  </style>
  <path class="contour" d="M73.2 0.0 L72.7 1.1 L70.1 7.3 L67.8 14.5 L65.8 21.8 L65.5 23.4 L64.1 29.1 L62.6 36.4 L61.6 43.6 L60.6 50.9 L60.1 58.2 L60.4 65.5 L63.6 72.7 L65.5 73.9 L72.7 77.4 L79.1 80.0 L80.0 80.3 L87.3 83.0 L94.5 87.1 L94.8 87.3 L101.8 90.7 L109.1 91.6 L116.4 88.6 L117.9 87.3 L123.3 80.0 L123.6 79.1 L125.7 72.7 L127.4 65.5 L129.5 58.2 L130.9 53.1 L131.4 50.9 L132.7 43.6 L132.8 36.4 L132.1 29.1 L131.5 21.8 L131.2 14.5 L130.9 11.3 L130.5 7.3 L128.5 0.0"/>
  <path class="contour" d="M44.5 0.0 L43.6 4.7 L43.2 7.3 L41.6 14.5 L40.1 21.8 L38.7 29.1 L37.6 36.4 L36.7 43.6 L36.4 45.0 L35.0 50.9 L33.8 58.2 L33.0 65.5 L31.9 72.7 L32.2 80.0 L36.4 87.1 L36.5 87.3 L43.6 92.0 L50.9 94.3 L52.5 94.5 L58.2 95.3 L65.5 96.4 L72.7 98.2 L80.0 100.2 L84.5 101.8 L87.3 102.9 L94.5 107.1 L97.4 109.1 L101.8 112.5 L108.4 116.4 L109.1 116.7 L116.4 119.8 L123.6 121.1 L130.9 119.2 L134.2 116.4 L138.2 111.2 L139.3 109.1 L142.1 101.8 L145.1 94.5 L145.5 93.6 L148.2 87.3 L151.1 80.0 L152.7 74.8 L153.4 72.7 L155.1 65.5 L156.3 58.2 L157.1 50.9 L158.0 43.6 L159.9 36.4 L160.0 35.7 L161.1 29.1 L160.0 26.6 L157.9 21.8 L155.1 14.5 L154.8 7.3 L155.2 0.0"/>
  <path class="contour" d="M21.1 0.0 L20.0 7.3 L17.8 14.5 L14.6 21.8 L14.5 21.9 L11.1 29.1 L8.4 36.4 L8.4 43.6 L8.6 50.9 L8.5 58.2 L8.3 65.5 L8.2 72.7 L9.8 80.0 L12.6 87.3 L14.5 91.7 L15.9 94.5 L20.5 101.8 L21.8 103.7 L26.8 109.1 L29.1 111.1 L36.4 114.1 L43.6 115.2 L49.3 116.4 L50.9 116.8 L58.2 118.7 L65.5 120.9 L72.2 123.6 L72.7 124.0 L80.0 130.3 L80.6 130.9 L87.3 134.6 L94.5 136.6 L101.8 138.2 L101.8 138.2 L109.1 140.4 L116.4 141.9 L123.6 143.6 L130.6 145.5 L130.9 145.6 L138.2 145.8 L139.2 145.5 L145.5 143.1 L152.3 138.2 L152.7 137.6 L156.9 130.9 L160.0 125.0 L160.9 123.6 L165.1 116.4 L167.3 109.9 L167.5 109.1 L169.2 101.8 L171.7 94.5 L174.5 87.4 L174.6 87.3 L178.1 80.0 L180.7 72.7 L181.8 68.6 L182.8 65.5 L185.4 58.2 L188.6 50.9 L189.1 49.9 L192.4 43.6 L196.4 38.1 L197.9 36.4 L203.6 29.8 L204.5 29.1 L209.6 21.8 L210.4 14.5 L207.2 7.3 L203.6 0.1 L203.6 0.0"/>
  <path class="contour" d="M279.2 0.0 L276.4 5.3 L275.3 7.3 L271.8 14.5 L269.1 21.2 L268.8 21.8 L264.6 29.1 L261.8 32.3 L258.0 36.4 L254.5 38.8 L247.3 43.2 L246.5 43.6 L240.0 47.0 L233.2 50.9 L232.7 51.2 L225.5 56.9 L224.2 58.2 L218.2 64.9 L217.7 65.5 L212.3 72.7 L210.9 75.2 L208.8 80.0 L204.8 87.3 L203.6 91.2 L202.7 94.5 L202.3 101.8 L201.1 109.1 L198.7 116.4 L196.4 121.8 L195.6 123.6 L191.8 130.9 L189.1 135.2 L187.4 138.2 L182.7 145.5 L181.8 146.7 L178.4 152.7 L174.5 159.3 L173.9 160.0 L167.3 167.3 L167.3 167.3 L160.0 171.3 L152.7 172.5 L145.5 171.4 L138.2 169.9 L130.9 168.5 L125.4 167.3 L123.6 166.9 L116.4 165.1 L109.1 164.2 L101.8 164.6 L94.5 165.5 L87.3 165.9 L80.0 166.0 L72.7 165.8 L65.5 165.9 L58.2 166.9 L56.8 167.3 L50.9 168.4 L43.6 169.3 L36.4 168.4 L34.1 167.3 L31.7 160.0 L34.4 152.7 L36.4 146.3 L36.6 145.5 L36.4 145.0 L29.1 139.8 L21.8 139.5 L15.0 138.2 L14.5 138.1 L7.3 130.9 L7.3 130.9 L4.4 123.6 L1.4 116.4 L0.0 112.5"/>
  <path class="contour" d="M348.6 0.0 L341.8 5.4 L339.2 7.3 L334.5 10.3 L328.6 14.5 L327.3 15.4 L320.2 21.8 L320.0 22.0 L313.8 29.1 L312.7 30.1 L306.8 36.4 L305.5 37.4 L298.2 42.8 L297.2 43.6 L290.9 49.3 L289.1 50.9 L283.6 56.1 L281.3 58.2 L276.4 62.5 L272.8 65.5 L269.1 68.8 L265.1 72.7 L261.8 76.6 L259.0 80.0 L254.5 86.1 L253.4 87.3 L247.5 94.5 L247.3 95.0 L244.8 101.8 L244.6 109.1 L242.4 116.4 L240.0 120.5 L237.8 123.6 L233.2 130.9 L232.7 131.7 L228.7 138.2 L225.5 144.0 L224.5 145.5 L219.6 152.7 L218.2 154.7 L213.8 160.0 L210.9 164.1 L208.6 167.3 L207.2 174.5 L207.0 181.8 L203.6 188.2 L203.1 189.1 L196.4 195.1 L194.3 196.4 L189.1 199.4 L183.7 203.6 L181.8 205.1 L174.5 204.8 L171.7 203.6 L167.3 202.0 L160.0 200.9 L152.7 199.8 L145.5 198.8 L138.2 197.9 L131.3 196.4 L130.9 196.3 L123.6 193.5 L116.4 191.1 L109.1 190.0 L103.5 189.1 L101.8 188.9 L94.5 188.1 L87.3 187.8 L80.0 187.6 L72.7 187.5 L65.5 188.2 L60.5 189.1 L58.2 189.5 L50.9 190.8 L43.6 191.7 L36.4 191.9 L29.1 190.2 L26.8 189.1 L21.8 186.6 L14.5 182.4 L13.5 181.8 L7.3 177.9 L1.0 174.5 L0.0 174.0"/>
  <path class="contour contour-major" d="M446.4 0.0 L443.6 3.0 L439.0 7.3 L436.4 8.7 L429.1 11.2 L421.8 13.0 L414.5 14.1 L411.2 14.5 L407.3 15.3 L400.0 21.8 L400.0 21.9 L396.8 29.1 L392.7 34.8 L390.0 36.4 L385.5 37.4 L378.2 37.2 L371.4 36.4 L370.9 36.3 L363.6 35.6 L356.4 36.1 L355.5 36.4 L349.1 38.8 L341.8 43.3 L341.4 43.6 L334.5 49.7 L333.2 50.9 L327.3 57.2 L326.4 58.2 L320.0 65.3 L319.9 65.5 L312.7 72.3 L312.3 72.7 L305.5 77.9 L302.3 80.0 L298.2 82.8 L292.2 87.3 L290.9 88.5 L285.2 94.5 L283.6 96.6 L280.0 101.8 L276.5 109.1 L276.4 109.3 L271.0 116.4 L269.1 118.2 L264.4 123.6 L261.8 127.0 L259.6 130.9 L255.6 138.2 L254.5 142.2 L253.8 145.5 L254.5 150.8 L255.0 152.7 L258.6 160.0 L261.8 166.5 L262.2 167.3 L263.0 174.5 L266.3 181.8 L266.2 189.1 L261.8 192.0 L254.5 195.9 L253.7 196.4 L247.3 203.6 L247.3 203.7 L240.0 208.3 L232.7 209.9 L229.8 210.9 L227.5 218.2 L229.1 225.5 L228.1 232.7 L225.5 235.7 L222.4 240.0 L218.2 243.0 L210.9 247.3 L210.9 247.3 L203.6 248.5 L197.3 247.3 L196.4 247.1 L189.1 243.7 L182.3 240.0 L181.8 239.8 L174.5 236.1 L167.3 233.4 L165.0 232.7 L160.0 231.0 L152.7 229.6 L145.5 229.2 L138.2 229.2 L130.9 228.7 L123.6 227.0 L120.0 225.5 L116.4 223.6 L109.1 218.9 L108.2 218.2 L101.8 213.3 L98.7 210.9 L94.5 208.5 L87.3 205.5 L80.0 204.2 L72.7 204.7 L65.5 206.5 L58.2 208.7 L51.1 210.9 L50.9 211.0 L43.6 212.7 L36.4 213.3 L29.1 212.4 L24.9 210.9 L21.8 209.5 L15.8 203.6 L14.5 202.6 L7.6 196.4 L7.3 196.1 L0.0 191.7"/>
  <path class="contour contour-dashed" d="M526.7 0.0 L523.6 2.2 L516.5 7.3 L516.4 7.4 L509.1 12.5 L506.0 14.5 L501.8 17.0 L494.5 21.2 L493.4 21.8 L487.3 24.8 L480.0 28.2 L477.7 29.1 L472.7 31.0 L465.5 33.6 L458.2 35.7 L456.0 36.4 L450.9 38.2 L443.6 41.4 L439.6 43.6 L436.4 46.3 L432.4 50.9 L429.1 55.3 L427.3 58.2 L421.9 65.5 L421.8 65.6 L415.7 72.7 L414.5 74.2 L410.2 80.0 L407.3 86.4 L406.8 87.3 L403.5 94.5 L400.0 100.5 L399.2 101.8 L392.7 108.4 L391.8 109.1 L385.5 114.5 L381.6 116.4 L378.2 119.0 L370.9 121.8 L363.6 123.4 L362.5 123.6 L356.4 126.0 L349.1 130.8 L349.0 130.9 L348.0 138.2 L349.1 140.3 L352.1 145.5 L356.4 150.1 L359.2 152.7 L363.6 155.5 L370.9 160.0 L370.9 160.0 L378.2 166.0 L379.2 167.3 L380.3 174.5 L378.2 181.1 L377.9 181.8 L378.2 182.2 L380.7 189.1 L384.8 196.4 L385.5 198.6 L386.8 203.6 L385.5 208.1 L384.5 210.9 L378.2 217.0 L376.6 218.2 L370.9 223.9 L369.3 225.5 L363.6 230.4 L358.0 232.7 L356.4 233.4 L349.1 234.8 L341.8 236.2 L334.5 239.5 L333.8 240.0 L332.7 247.3 L334.5 251.2 L336.1 254.5 L338.0 261.8 L334.5 266.5 L327.3 267.5 L320.0 266.3 L312.7 265.0 L305.5 264.1 L298.2 263.7 L290.9 264.1 L283.6 264.9 L276.4 266.1 L269.1 267.5 L261.8 269.0 L261.3 269.1 L254.5 270.9 L247.3 272.9 L240.0 276.0 L239.3 276.4 L232.7 278.7 L225.5 280.2 L218.2 280.9 L210.9 281.1 L203.6 280.2 L196.4 277.8 L193.4 276.4 L189.1 274.3 L181.8 270.2 L180.0 269.1 L174.5 265.7 L168.4 261.8 L167.3 261.2 L160.0 257.8 L152.7 255.3 L149.3 254.5 L145.5 253.9 L138.2 252.2 L130.9 251.0 L123.6 250.0 L116.4 249.3 L109.1 248.8 L101.8 248.1 L95.6 247.3 L94.5 247.1 L87.3 245.3 L80.0 243.3 L72.7 240.7 L71.1 240.0 L65.5 236.5 L58.3 232.7 L58.2 232.7 L50.9 230.5 L43.6 229.6 L36.4 229.1 L29.1 228.4 L21.8 227.4 L14.5 225.9 L12.9 225.5 L7.3 223.6 L0.0 219.1"/>
  <path class="contour" d="M632.1 0.0 L627.7 7.3 L625.5 10.0 L620.5 14.5 L618.2 16.2 L610.9 19.5 L605.9 21.8 L603.6 22.8 L596.4 26.0 L591.4 29.1 L589.1 30.9 L582.9 36.4 L581.8 37.4 L574.5 43.4 L574.3 43.6 L567.3 47.9 L561.3 50.9 L560.0 51.5 L552.7 54.1 L545.5 56.7 L542.3 58.2 L538.2 59.5 L530.9 63.6 L529.1 65.5 L523.6 69.5 L520.4 72.7 L516.4 76.2 L511.9 80.0 L509.1 82.8 L503.7 87.3 L501.8 89.0 L494.5 94.4 L494.2 94.5 L487.3 100.8 L486.0 101.8 L480.0 107.8 L478.6 109.1 L472.9 116.4 L472.7 116.7 L469.0 123.6 L466.2 130.9 L465.5 132.3 L462.6 138.2 L458.2 144.5 L457.6 145.5 L453.0 152.7 L450.9 156.6 L449.2 160.0 L447.2 167.3 L447.6 174.5 L447.6 181.8 L446.4 189.1 L444.9 196.4 L443.6 200.9 L442.7 203.6 L438.8 210.9 L436.4 213.9 L432.8 218.2 L429.2 225.5 L429.1 225.6 L426.0 232.7 L421.8 238.8 L421.1 240.0 L417.4 247.3 L414.5 254.2 L414.4 254.5 L409.7 261.8 L407.3 263.7 L400.0 268.1 L398.4 269.1 L392.7 272.1 L386.2 276.4 L385.5 276.8 L378.2 281.2 L374.4 283.6 L370.9 285.6 L363.6 290.0 L362.3 290.9 L356.4 293.8 L349.1 296.6 L343.4 298.2 L341.8 298.6 L334.5 300.4 L327.3 302.9 L321.8 305.5 L320.0 306.2 L312.7 309.0 L305.5 310.9 L298.2 311.4 L290.9 310.8 L283.6 309.9 L276.4 308.8 L269.1 307.9 L261.8 307.5 L254.5 308.3 L247.3 309.2 L240.0 310.2 L233.4 312.7 L232.7 313.0 L225.5 318.0 L218.2 320.0 L217.9 320.0 L210.9 321.0 L203.6 322.1 L196.4 321.6 L193.0 320.0 L189.1 318.0 L183.4 312.7 L181.8 311.4 L176.0 305.5 L174.5 304.1 L167.7 298.2 L167.3 297.8 L160.0 292.1 L158.2 290.9 L152.7 287.5 L145.5 284.1 L144.6 283.6 L138.2 280.3 L130.9 276.8 L129.5 276.4 L123.6 274.2 L116.4 272.4 L109.1 270.4 L105.3 269.1 L101.8 268.0 L94.5 265.8 L87.3 264.0 L80.0 262.5 L76.7 261.8 L72.7 261.1 L65.5 259.5 L58.2 257.5 L50.9 255.4 L47.4 254.5 L43.6 253.6 L36.4 252.3 L29.1 250.9 L21.8 249.8 L14.5 248.9 L8.2 247.3 L7.3 247.0 L0.0 245.8"/>
  <path class="contour" d="M673.7 0.0 L669.1 1.8 L661.8 7.0 L661.6 7.3 L657.1 14.5 L654.5 20.5 L654.1 21.8 L651.6 29.1 L648.6 36.4 L647.3 38.5 L642.5 43.6 L640.0 45.9 L632.7 50.5 L631.9 50.9 L625.5 53.4 L618.2 56.0 L613.2 58.2 L610.9 58.9 L603.6 62.5 L598.8 65.5 L596.4 67.0 L589.1 72.6 L588.9 72.7 L581.8 79.3 L580.7 80.0 L574.5 85.1 L570.7 87.3 L567.3 90.0 L562.0 94.5 L560.0 97.2 L556.7 101.8 L553.6 109.1 L553.6 116.4 L552.8 123.6 L552.7 123.7 L546.4 130.9 L545.5 131.7 L538.2 138.0 L538.0 138.2 L530.9 143.8 L529.3 145.5 L523.6 152.6 L523.6 152.7 L518.6 160.0 L516.4 163.3 L513.4 167.3 L509.1 172.1 L507.1 174.5 L501.8 180.1 L500.3 181.8 L494.5 187.2 L492.6 189.1 L487.3 194.3 L485.3 196.4 L480.0 203.3 L479.8 203.6 L475.8 210.9 L472.7 217.0 L472.2 218.2 L468.1 225.5 L465.5 229.7 L463.6 232.7 L458.8 240.0 L458.2 241.0 L454.8 247.3 L452.0 254.5 L450.9 257.0 L448.9 261.8 L444.6 269.1 L443.6 270.2 L437.3 276.4 L436.4 277.0 L429.1 281.1 L423.8 283.6 L421.8 284.4 L414.5 287.0 L407.3 289.9 L405.1 290.9 L400.0 292.9 L392.7 295.8 L387.2 298.2 L385.5 298.8 L378.2 301.6 L370.9 304.6 L368.8 305.5 L363.6 307.4 L356.4 310.1 L349.1 312.5 L348.5 312.7 L341.8 315.1 L334.5 318.2 L329.9 320.0 L327.3 321.1 L320.0 323.2 L312.7 324.7 L305.5 326.1 L298.2 327.2 L297.7 327.3 L290.9 328.0 L283.6 328.7 L276.4 329.5 L269.1 330.6 L261.8 332.0 L254.5 333.6 L251.7 334.5 L247.3 336.0 L240.0 339.3 L234.3 341.8 L232.7 342.6 L225.5 345.4 L218.2 347.5 L210.9 348.7 L205.5 349.1 L203.6 349.2 L203.0 349.1 L196.4 347.9 L189.1 345.2 L181.8 341.8 L181.8 341.8 L174.5 337.2 L170.2 334.5 L167.3 332.7 L160.0 327.3 L160.0 327.2 L153.1 320.0 L152.7 319.6 L145.7 312.7 L145.5 312.5 L138.2 306.1 L137.3 305.5 L130.9 301.1 L125.1 298.2 L123.6 297.6 L116.4 295.6 L109.1 294.1 L101.8 293.1 L94.5 292.6 L87.3 292.5 L80.0 292.9 L72.7 294.2 L65.5 295.0 L58.2 294.3 L50.9 293.2 L43.6 292.0 L39.7 290.9 L36.4 290.0 L29.1 287.6 L21.8 284.4 L20.3 283.6 L14.5 281.2 L7.3 278.0 L3.3 276.4 L0.0 275.1"/>
  <path class="contour" d="M1258.2 260.0 L1253.6 261.8 L1250.9 267.7 L1250.6 269.1 L1250.9 269.8 L1255.1 276.4 L1258.2 279.9 L1262.2 283.6 L1265.5 289.2 L1266.8 290.9 L1265.5 294.8 L1264.6 298.2 L1262.8 305.5 L1258.2 312.6 L1258.1 312.7 L1250.9 316.0 L1243.6 316.6 L1236.4 315.9 L1229.1 314.7 L1221.8 314.2 L1214.5 314.6 L1207.3 315.8 L1200.0 317.4 L1192.7 319.1 L1189.3 320.0 L1185.5 320.6 L1178.2 321.6 L1170.9 322.5 L1163.6 323.5 L1156.4 324.9 L1149.1 326.9 L1147.8 327.3 L1141.8 330.9 L1137.3 334.5 L1134.5 335.8 L1127.3 338.4 L1120.0 340.2 L1112.7 341.4 L1110.2 341.8 L1105.5 342.3 L1098.2 343.5 L1090.9 345.6 L1083.6 348.2 L1081.6 349.1 L1076.4 350.8 L1069.1 353.4 L1062.4 356.4 L1061.8 356.6 L1054.5 358.9 L1047.3 360.5 L1040.0 361.2 L1032.7 361.7 L1025.5 362.6 L1021.1 363.6 L1018.2 364.6 L1010.9 368.8 L1008.1 370.9 L1003.6 375.4 L1001.3 378.2 L996.7 385.5 L996.5 392.7 L1000.2 400.0 L1003.6 406.9 L1003.8 407.3 L1007.1 414.5 L1010.6 421.8 L1010.9 422.4 L1013.6 429.1 L1016.4 436.4 L1018.2 439.5 L1021.5 443.6 L1025.5 446.7 L1031.7 450.9 L1032.7 451.4 L1040.0 454.1 L1047.3 457.0 L1049.8 458.2 L1054.5 459.4 L1061.8 461.2 L1069.1 463.4 L1076.1 465.5 L1076.4 465.5 L1083.6 467.3 L1090.9 467.2 L1098.2 465.6 L1098.5 465.5 L1105.5 463.0 L1112.7 459.1 L1113.9 458.2 L1120.0 452.3 L1121.4 450.9 L1127.1 443.6 L1127.3 443.5 L1134.5 437.6 L1136.4 436.4 L1141.8 433.0 L1149.1 429.8 L1150.8 429.1 L1156.4 426.7 L1163.6 424.3 L1170.9 422.6 L1175.3 421.8 L1178.2 421.2 L1185.5 419.9 L1192.7 419.1 L1200.0 418.0 L1207.3 416.6 L1214.5 414.7 L1215.2 414.5 L1221.8 412.3 L1229.1 410.2 L1236.4 408.7 L1243.6 408.0 L1250.9 407.7 L1258.2 407.6 L1265.5 407.4 L1267.3 407.3 L1272.7 406.8 L1280.0 405.6 L1287.3 403.9 L1294.5 402.0 L1301.1 400.0 L1301.8 399.7 L1309.1 396.3 L1316.4 392.9 L1317.0 392.7 L1323.6 390.8 L1330.9 388.0 L1334.1 385.5 L1337.2 378.2 L1337.0 370.9 L1338.2 365.4 L1338.7 363.6 L1345.5 357.1 L1345.9 356.4 L1349.0 349.1 L1349.8 341.8 L1348.8 334.5 L1347.4 327.3 L1345.5 322.4 L1343.8 320.0 L1338.2 312.9 L1337.9 312.7 L1331.3 305.5 L1330.9 304.9 L1323.7 298.2 L1323.6 298.1 L1316.4 291.9 L1315.2 290.9 L1309.1 286.0 L1306.0 283.6 L1301.8 280.7 L1295.3 276.4 L1294.5 275.8 L1287.3 270.8 L1285.0 269.1 L1280.0 266.1 L1272.7 262.2 L1271.8 261.8 L1265.5 260.1 L1258.2 260.0"/>
  <path class="contour" d="M1600.0 1109.3 L1594.1 1105.5 L1592.7 1104.8 L1585.5 1102.9 L1578.2 1101.5 L1570.9 1100.4 L1563.6 1099.2 L1557.2 1098.2 L1556.4 1098.1 L1549.1 1097.2 L1541.8 1096.0 L1534.5 1095.0 L1527.3 1096.7 L1520.0 1097.5 L1512.7 1097.6 L1505.5 1097.7 L1498.2 1091.0 L1498.1 1090.9 L1493.8 1083.6 L1490.9 1078.5 L1489.2 1076.4 L1483.6 1070.5 L1481.9 1069.1 L1476.4 1066.0 L1470.6 1061.8 L1469.1 1061.1 L1461.8 1059.1 L1454.5 1057.8 L1447.3 1057.9 L1440.0 1061.0 L1438.9 1061.8 L1432.7 1067.7 L1431.2 1069.1 L1425.5 1074.3 L1422.4 1076.4 L1418.2 1079.2 L1411.0 1083.6 L1410.9 1083.7 L1403.6 1090.7 L1403.4 1090.9 L1396.4 1097.4 L1395.8 1098.2 L1390.4 1105.5 L1389.1 1106.9 L1385.0 1112.7 L1381.8 1118.0 L1380.4 1120.0 L1378.0 1127.3 L1378.2 1134.5 L1380.1 1141.8 L1381.8 1144.6 L1384.5 1149.1 L1389.1 1153.3 L1393.9 1156.4 L1396.4 1158.0 L1403.6 1163.6 L1403.6 1163.7 L1410.3 1170.9 L1410.9 1171.8 L1418.2 1176.3 L1425.5 1175.9 L1430.2 1178.2 L1432.7 1179.5 L1440.0 1183.9 L1441.7 1185.5 L1447.3 1191.3 L1448.6 1192.7 L1454.5 1198.9 L1455.5 1200.0"/>
  <path class="contour" d="M1600.0 1141.8 L1592.7 1145.8 L1585.5 1146.6 L1578.2 1147.0 L1570.9 1147.3 L1563.6 1146.8 L1556.4 1147.4 L1551.2 1149.1 L1549.1 1154.5 L1548.5 1156.4 L1548.3 1163.6 L1549.1 1165.2 L1551.0 1170.9 L1552.0 1178.2 L1552.3 1185.5 L1550.3 1192.7 L1549.1 1193.5 L1541.8 1196.2 L1541.5 1200.0"/>
  <path class="contour" d="M770.5 0.0 L763.6 2.8 L756.4 5.0 L749.1 5.8 L741.8 6.8 L740.2 7.3 L734.5 10.3 L727.3 14.4 L727.0 14.5 L720.9 21.8 L720.0 24.0 L718.1 29.1 L713.8 36.4 L712.7 37.4 L706.6 43.6 L705.5 44.5 L698.2 50.8 L698.1 50.9 L690.9 55.7 L687.1 58.2 L683.6 60.2 L676.4 62.9 L672.4 65.5 L669.1 67.4 L662.9 72.7 L661.8 73.4 L654.5 77.4 L647.9 80.0 L647.3 80.3 L640.0 82.7 L632.7 85.4 L629.3 87.3 L630.2 94.5 L629.4 101.8 L625.5 108.9 L625.4 109.1 L619.4 116.4 L618.2 117.8 L612.0 123.6 L610.9 124.7 L603.6 130.9 L603.6 130.9 L596.4 137.2 L595.4 138.2 L589.1 143.3 L586.5 145.5 L581.8 148.3 L574.5 152.6 L574.2 152.7 L567.3 155.9 L560.0 159.5 L559.1 160.0 L552.7 164.5 L549.5 167.3 L545.5 171.3 L542.6 174.5 L538.2 179.7 L536.5 181.8 L531.1 189.1 L530.9 189.5 L527.0 196.4 L523.6 201.3 L521.6 203.6 L516.4 208.0 L513.0 210.9 L509.1 213.6 L503.6 218.2 L501.8 219.6 L496.1 225.5 L494.5 227.3 L491.1 232.7 L487.3 239.1 L486.8 240.0 L482.6 247.3 L480.0 251.4 L478.0 254.5 L472.9 261.8 L472.7 262.1 L467.0 269.1 L465.5 270.7 L459.9 276.4 L458.2 277.9 L450.9 283.5 L450.7 283.6 L443.6 288.3 L438.9 290.9 L436.4 292.3 L429.1 296.4 L424.9 298.2 L421.8 299.7 L414.5 302.9 L407.3 305.5 L407.3 305.5 L400.0 308.5 L392.7 311.4 L389.1 312.7 L385.5 314.1 L378.2 316.8 L370.9 319.5 L369.8 320.0 L363.6 322.9 L356.4 325.7 L353.2 327.3 L349.1 330.0 L341.8 334.1 L340.4 334.5 L334.5 336.0 L327.3 337.0 L320.0 337.8 L312.7 338.7 L305.5 340.1 L298.6 341.8 L298.2 341.9 L290.9 343.7 L283.6 346.0 L276.4 348.7 L275.4 349.1 L269.1 351.9 L261.8 355.2 L259.5 356.4 L254.5 359.9 L250.3 363.6 L247.3 367.3 L243.5 370.9 L240.0 374.6 L234.8 378.2 L232.7 379.1 L225.5 380.9 L218.2 380.8 L210.9 379.8 L204.8 378.2 L203.6 377.9 L196.4 375.5 L189.1 372.8 L184.5 370.9 L181.8 369.8 L174.5 366.5 L168.3 363.6 L167.3 363.3 L160.0 361.9 L152.7 359.7 L147.6 356.4 L145.5 354.7 L140.0 349.1 L138.2 347.3 L132.9 341.8 L130.9 339.9 L124.9 334.5 L123.6 333.5 L116.4 330.8 L109.1 331.4 L101.8 333.1 L94.5 334.0 L87.3 333.9 L80.0 333.3 L72.7 332.5 L65.5 331.1 L58.2 329.3 L50.9 327.5 L49.8 327.3 L43.6 325.8 L36.4 323.6 L29.1 320.4 L28.3 320.0 L21.8 316.0 L17.8 312.7 L14.5 310.6 L8.4 305.5 L7.3 304.8 L0.0 300.8"/>
  <path class="contour" d="M1003.6 166.1 L998.0 167.3 L996.4 167.7 L989.1 167.9 L981.8 171.5 L974.5 173.2 L967.3 172.4 L960.0 171.4 L952.7 171.1 L945.5 171.4 L938.2 172.7 L933.7 174.5 L931.7 181.8 L936.5 189.1 L938.2 191.0 L942.3 196.4 L945.4 203.6 L945.3 210.9 L944.1 218.2 L942.1 225.5 L939.9 232.7 L938.2 238.1 L937.6 240.0 L936.5 247.3 L937.8 254.5 L938.2 255.3 L940.4 261.8 L942.8 269.1 L944.8 276.4 L945.5 278.5 L947.3 283.6 L945.5 286.5 L939.3 290.9 L938.2 291.2 L930.9 293.0 L924.3 298.2 L930.9 305.4 L930.9 305.5 L938.2 308.6 L945.5 310.7 L952.7 311.8 L960.0 312.7 L960.0 312.7 L961.7 320.0 L960.0 321.0 L952.7 326.5 L952.0 327.3 L950.2 334.5 L945.5 340.5 L944.5 341.8 L938.2 345.5 L931.9 349.1 L930.9 349.9 L923.6 354.9 L921.2 356.4 L916.4 361.8 L914.7 363.6 L911.5 370.9 L910.5 378.2 L910.8 385.5 L909.6 392.7 L909.1 395.2 L908.1 400.0 L906.6 407.3 L906.8 414.5 L909.1 417.9 L911.7 421.8 L916.4 425.5 L920.1 429.1 L923.6 432.2 L928.7 436.4 L930.9 437.6 L938.2 440.5 L945.5 442.6 L950.1 443.6 L952.7 444.3 L960.0 446.2 L967.3 448.5 L973.2 450.9 L974.5 451.5 L981.8 455.2 L987.5 458.2 L989.1 459.0 L996.4 463.0 L1000.8 465.5 L1003.6 467.0 L1010.9 470.7 L1015.5 472.7 L1018.2 473.8 L1025.5 476.2 L1032.7 478.2 L1040.0 479.7 L1041.4 480.0 L1047.3 481.7 L1054.5 485.1 L1057.7 487.3 L1061.8 490.9 L1065.7 494.5 L1069.1 499.5 L1070.6 501.8 L1073.6 509.1 L1076.2 516.4 L1076.4 516.5 L1083.6 523.5 L1084.1 523.6 L1090.9 525.0 L1098.2 524.4 L1101.4 523.6 L1105.5 522.6 L1112.7 520.7 L1120.0 519.1 L1127.3 517.8 L1134.5 516.7 L1136.8 516.4 L1141.8 515.4 L1149.1 513.3 L1156.3 509.1 L1156.4 509.1 L1163.6 502.7 L1164.8 501.8 L1170.9 496.3 L1173.4 494.5 L1178.2 490.9 L1184.0 487.3 L1185.5 486.4 L1192.7 483.4 L1200.0 482.3 L1207.3 483.0 L1214.5 484.5 L1221.8 485.8 L1229.1 485.8 L1236.4 483.7 L1241.0 480.0 L1243.6 477.1 L1246.2 472.7 L1250.6 465.5 L1250.9 465.1 L1256.8 458.2 L1258.2 457.0 L1265.5 451.8 L1267.1 450.9 L1272.7 448.0 L1280.0 444.7 L1283.3 443.6 L1287.3 442.3 L1294.5 441.4 L1301.8 442.3 L1306.3 443.6 L1308.5 450.9 L1309.1 451.8 L1313.6 458.2 L1316.4 459.1 L1323.6 459.1 L1327.8 458.2 L1330.9 456.6 L1338.2 452.7 L1340.9 450.9 L1345.5 446.9 L1348.3 443.6 L1352.7 440.0 L1355.5 436.4 L1360.0 431.7 L1362.1 429.1 L1367.3 423.3 L1368.4 421.8 L1373.6 414.5 L1374.5 412.8 L1377.5 407.3 L1380.8 400.0 L1381.8 397.8 L1384.4 392.7 L1389.1 385.6 L1389.2 385.5 L1396.1 378.2 L1396.4 377.9 L1403.6 371.8 L1404.5 370.9 L1410.9 365.2 L1412.5 363.6 L1417.9 356.4 L1410.9 350.9 L1407.8 349.1 L1403.6 343.4 L1402.9 341.8 L1402.5 334.5 L1399.2 327.3 L1396.8 320.0 L1403.6 313.6 L1404.5 312.7 L1403.6 312.4 L1396.4 307.5 L1395.1 305.5 L1389.9 298.2 L1389.1 296.5 L1386.7 290.9 L1383.4 283.6 L1381.8 281.3 L1379.4 276.4 L1375.1 269.1 L1374.5 268.4 L1370.1 261.8 L1367.3 258.9 L1362.5 254.5 L1360.0 252.6 L1354.4 247.3 L1352.7 245.9 L1346.5 240.0 L1345.5 239.2 L1338.2 233.9 L1336.4 232.7 L1330.9 230.2 L1323.6 227.5 L1318.8 225.5 L1316.4 224.6 L1309.1 221.7 L1301.8 218.9 L1299.6 218.2 L1294.5 216.7 L1287.3 215.1 L1280.0 213.7 L1272.7 212.8 L1265.5 212.4 L1258.2 212.1 L1250.9 212.0 L1243.6 211.5 L1240.6 210.9 L1236.4 209.8 L1229.1 207.2 L1221.8 205.1 L1214.8 203.6 L1214.5 203.6 L1207.3 202.2 L1200.0 200.4 L1192.7 198.0 L1187.2 196.4 L1185.5 195.9 L1178.2 194.9 L1170.9 195.9 L1169.9 196.4 L1163.6 199.7 L1156.4 203.4 L1155.3 203.6 L1149.1 204.8 L1141.8 205.3 L1134.5 205.2 L1127.3 204.7 L1120.0 203.6 L1120.0 203.6 L1112.7 202.5 L1105.5 201.2 L1098.2 199.6 L1090.9 197.8 L1086.2 196.4 L1083.6 195.7 L1076.4 193.5 L1069.1 190.3 L1067.0 189.1 L1061.8 186.1 L1055.7 181.8 L1054.5 180.8 L1047.3 175.6 L1045.1 174.5 L1040.0 171.4 L1034.1 167.3 L1032.7 166.5 L1025.5 162.4 L1018.2 161.5 L1010.9 163.3 L1003.6 166.1"/>
  <path class="contour" d="M1600.0 618.7 L1599.6 618.2 L1593.0 610.9 L1592.7 610.8 L1585.5 606.2 L1581.0 603.6 L1578.2 602.3 L1570.9 599.4 L1563.6 597.9 L1556.4 597.8 L1549.1 598.4 L1541.8 599.3 L1534.5 600.4 L1527.3 601.7 L1520.0 603.4 L1519.0 603.6 L1512.7 605.7 L1505.5 608.4 L1499.0 610.9 L1498.2 611.4 L1490.9 615.3 L1483.6 618.2 L1483.6 618.2 L1476.4 622.4 L1469.1 624.9 L1467.4 625.5 L1461.8 629.0 L1455.5 632.7 L1454.5 633.5 L1447.3 638.2 L1442.9 640.0 L1440.0 640.7 L1432.7 642.2 L1425.5 643.8 L1418.2 646.0 L1415.3 647.3 L1411.9 654.5 L1418.2 661.1 L1419.4 661.8 L1425.5 664.1 L1432.7 665.6 L1440.0 667.1 L1447.3 667.8 L1454.5 667.3 L1461.8 666.5 L1469.1 665.5 L1476.4 664.6 L1483.6 663.9 L1490.9 663.9 L1498.2 664.7 L1505.5 666.4 L1512.7 668.7 L1514.4 669.1 L1520.0 670.7 L1527.3 671.4 L1534.5 670.8 L1540.8 669.1 L1541.8 668.9 L1549.1 666.6 L1556.4 664.9 L1563.6 663.9 L1570.9 663.0 L1577.1 661.8 L1578.2 661.6 L1585.5 659.4 L1592.7 655.2 L1593.6 654.5 L1600.0 648.4"/>
  <path class="contour" d="M1600.0 1036.7 L1592.7 1034.9 L1585.5 1033.2 L1583.6 1032.7 L1578.2 1030.8 L1570.9 1029.6 L1563.6 1030.6 L1559.2 1032.7 L1556.4 1034.5 L1551.2 1040.0 L1549.1 1042.4 L1541.8 1046.1 L1537.7 1047.3 L1534.5 1048.9 L1528.5 1054.5 L1527.3 1055.4 L1525.0 1054.5 L1520.0 1053.0 L1512.7 1050.5 L1505.5 1048.4 L1504.1 1047.3 L1498.2 1042.7 L1495.4 1040.0 L1490.9 1036.3 L1486.4 1032.7 L1483.6 1030.4 L1478.4 1025.5 L1476.4 1023.3 L1469.3 1018.2 L1469.1 1018.1 L1461.8 1016.3 L1454.5 1016.0 L1447.3 1016.3 L1440.0 1016.6 L1432.7 1017.3 L1426.4 1018.2 L1425.5 1018.3 L1418.2 1019.9 L1410.9 1021.9 L1403.6 1024.8 L1402.2 1025.5 L1396.4 1029.4 L1389.1 1032.7 L1389.1 1032.7 L1381.8 1035.4 L1374.5 1037.3 L1367.3 1038.9 L1362.8 1040.0 L1360.0 1040.9 L1352.7 1044.1 L1345.8 1047.3 L1345.5 1047.4 L1338.2 1050.3 L1330.9 1052.7 L1323.6 1054.2 L1321.0 1054.5 L1316.4 1055.2 L1309.1 1057.0 L1301.8 1059.9 L1298.1 1061.8 L1294.5 1063.3 L1287.3 1066.0 L1280.7 1069.1 L1280.0 1069.5 L1272.7 1075.7 L1272.2 1076.4 L1272.7 1079.3 L1273.5 1083.6 L1274.4 1090.9 L1272.7 1092.1 L1266.9 1098.2 L1265.5 1099.4 L1259.7 1105.5 L1258.2 1106.9 L1250.9 1112.4 L1250.4 1112.7 L1243.6 1116.8 L1236.7 1120.0 L1236.4 1120.2 L1229.1 1122.8 L1221.8 1125.6 L1217.9 1127.3 L1214.5 1128.8 L1207.3 1131.4 L1200.0 1133.2 L1193.8 1134.5 L1192.7 1134.9 L1185.5 1137.5 L1178.2 1140.5 L1175.3 1141.8 L1170.9 1144.5 L1165.2 1149.1 L1163.6 1151.1 L1160.1 1156.4 L1157.4 1163.6 L1156.4 1166.5 L1154.5 1170.9 L1149.8 1178.2 L1149.1 1178.9 L1141.8 1185.1 L1141.3 1185.5 L1134.5 1190.1 L1130.7 1192.7 L1127.3 1195.5 L1120.0 1199.8 L1116.6 1200.0"/>
  <path class="contour" d="M1112.3 1200.0 L1105.5 1197.2 L1098.2 1195.4 L1090.9 1195.3 L1083.6 1196.0 L1076.4 1196.6 L1069.1 1197.0 L1061.8 1197.3 L1054.5 1197.5 L1047.3 1197.8 L1040.0 1198.3 L1032.7 1198.8 L1025.5 1199.5 L1018.3 1200.0"/>
  <path class="contour" d="M850.5 0.0 L848.5 7.3 L848.2 14.5 L845.2 21.8 L843.6 23.2 L836.4 27.8 L832.5 29.1 L829.1 30.3 L821.8 31.1 L814.5 31.8 L807.3 33.1 L800.0 35.0 L795.9 36.4 L792.7 37.6 L785.5 40.2 L778.2 42.9 L776.4 43.6 L770.9 47.3 L765.2 50.9 L763.6 52.6 L757.9 58.2 L756.4 60.1 L751.4 65.5 L749.1 68.1 L741.8 72.6 L734.5 72.2 L727.5 65.5 L727.3 65.3 L720.0 65.0 L718.5 65.5 L712.7 67.3 L705.5 70.5 L701.9 72.7 L699.2 80.0 L701.6 87.3 L701.6 94.5 L700.1 101.8 L698.2 107.0 L697.4 109.1 L693.8 116.4 L690.9 119.6 L683.6 122.9 L682.0 123.6 L676.4 125.7 L670.2 130.9 L669.1 132.2 L661.8 137.1 L659.9 138.2 L654.5 141.9 L648.0 145.5 L647.3 146.1 L640.0 151.2 L636.6 152.7 L632.7 156.8 L627.1 160.0 L625.5 165.0 L624.7 167.3 L618.2 172.6 L616.7 174.5 L610.9 177.1 L603.6 180.9 L601.8 181.8 L596.4 184.5 L589.1 188.0 L586.9 189.1 L581.8 192.9 L578.1 196.4 L574.5 201.4 L573.4 203.6 L570.6 210.9 L567.3 216.1 L566.0 218.2 L560.0 223.3 L557.3 225.5 L552.7 229.0 L548.8 232.7 L545.5 235.4 L541.4 240.0 L538.2 242.4 L532.7 247.3 L530.9 248.3 L523.6 251.6 L516.4 254.4 L516.2 254.5 L509.1 258.1 L504.1 261.8 L501.8 263.6 L496.3 269.1 L494.5 271.0 L489.5 276.4 L487.3 278.6 L481.6 283.6 L480.0 284.7 L472.7 289.8 L471.4 290.9 L465.5 294.3 L458.9 298.2 L458.2 298.5 L450.9 302.4 L445.2 305.5 L443.6 306.3 L436.4 310.4 L431.4 312.7 L429.1 313.7 L421.8 316.6 L414.5 319.4 L413.0 320.0 L407.3 322.5 L400.0 325.7 L396.2 327.3 L392.7 328.7 L385.5 331.4 L378.8 334.5 L378.2 334.8 L370.9 338.0 L363.6 341.2 L362.2 341.8 L356.4 343.7 L349.1 346.1 L341.8 348.5 L339.2 349.1 L334.5 350.5 L327.3 352.2 L320.0 353.9 L312.7 355.7 L310.7 356.4 L305.5 358.1 L298.2 361.8 L294.9 363.6 L290.9 366.0 L283.6 370.7 L283.4 370.9 L276.4 377.6 L275.8 378.2 L269.1 384.8 L268.2 385.5 L261.8 390.2 L258.1 392.7 L254.5 395.3 L247.6 400.0 L247.3 400.2 L240.0 404.7 L234.7 407.3 L232.7 408.6 L225.5 412.3 L220.0 414.5 L218.2 415.6 L210.9 420.0 L208.5 421.8 L203.6 425.1 L196.4 428.2 L189.1 427.1 L181.8 425.5 L174.5 424.1 L170.2 421.8 L167.3 419.8 L163.3 414.5 L160.0 407.4 L159.9 407.3 L154.8 400.0 L152.7 398.0 L145.5 393.0 L145.0 392.7 L138.2 389.0 L132.2 385.5 L130.9 384.7 L123.6 379.7 L122.1 378.2 L116.4 372.1 L115.2 370.9 L109.1 364.9 L105.4 363.6 L101.8 362.7 L94.5 360.9 L87.3 359.1 L80.0 357.8 L72.7 357.3 L65.5 356.9 L62.0 356.4 L58.2 355.8 L50.9 354.5 L43.6 353.0 L36.4 351.3 L29.1 349.5 L27.8 349.1 L21.8 347.5 L14.5 345.2 L7.3 342.9 L4.4 341.8 L0.0 340.1"/>
  <path class="contour" d="M770.9 78.0 L767.3 80.0 L763.6 82.1 L756.7 87.3 L756.4 87.5 L749.1 94.0 L748.5 94.5 L742.1 101.8 L741.8 102.3 L737.6 109.1 L734.5 113.0 L731.2 116.4 L727.3 120.8 L725.9 123.6 L727.3 129.6 L728.5 130.9 L734.5 135.0 L737.1 138.2 L741.8 140.3 L749.1 142.4 L754.0 145.5 L756.4 147.0 L763.6 146.6 L765.1 145.5 L770.3 138.2 L770.9 137.3 L776.0 130.9 L778.2 124.9 L778.6 123.6 L780.0 116.4 L780.2 109.1 L778.6 101.8 L778.2 99.5 L777.4 94.5 L778.0 87.3 L778.2 86.1 L778.8 80.0 L778.2 78.6 L770.9 78.0"/>
  <path class="contour" d="M1600.0 549.9 L1592.7 551.3 L1585.5 552.3 L1578.2 552.6 L1570.9 552.2 L1563.6 551.5 L1556.4 550.4 L1549.1 549.0 L1541.8 547.1 L1536.8 545.5 L1534.5 544.5 L1527.3 542.0 L1520.0 540.0 L1513.9 538.2 L1512.7 537.4 L1505.5 534.6 L1501.1 530.9 L1502.3 523.6 L1504.0 516.4 L1502.9 509.1 L1498.2 506.0 L1490.9 503.2 L1487.2 501.8 L1483.6 500.2 L1478.0 494.5 L1477.3 487.3 L1476.4 485.5 L1474.2 480.0 L1470.3 472.7 L1469.1 471.2 L1461.8 467.9 L1454.5 466.6 L1447.3 466.3 L1440.0 467.3 L1432.7 468.7 L1425.5 469.4 L1419.7 465.5 L1418.2 463.2 L1410.9 459.6 L1407.9 458.2 L1408.4 450.9 L1410.9 448.2 L1414.5 443.6 L1418.2 439.0 L1420.5 436.4 L1425.5 429.8 L1426.2 429.1 L1432.7 423.3 L1435.2 421.8 L1440.0 418.8 L1447.3 415.6 L1449.4 414.5 L1454.5 411.4 L1459.1 407.3 L1461.8 402.1 L1462.6 400.0 L1462.6 392.7 L1461.9 385.5 L1462.4 378.2 L1469.1 372.1 L1474.2 370.9 L1476.4 370.7 L1483.6 370.4 L1490.9 366.2 L1494.0 363.6 L1498.2 358.8 L1500.3 356.4 L1505.5 351.6 L1507.5 349.1 L1505.9 341.8 L1505.5 341.1 L1501.3 334.5 L1498.2 328.0 L1497.8 327.3 L1491.5 320.0 L1490.9 319.5 L1484.0 312.7 L1483.6 312.4 L1477.2 305.5 L1476.4 304.5 L1470.4 298.2 L1469.1 296.9 L1462.7 290.9 L1461.8 290.1 L1454.8 283.6 L1454.5 283.4 L1447.3 278.7 L1443.0 276.4 L1440.0 274.9 L1432.7 271.7 L1426.4 269.1 L1425.5 268.5 L1418.2 264.6 L1413.5 261.8 L1410.9 260.2 L1403.6 254.9 L1403.2 254.5 L1396.4 249.4 L1393.6 247.3 L1389.1 244.2 L1383.1 240.0 L1381.8 239.2 L1374.5 234.3 L1372.3 232.7 L1367.3 229.4 L1361.5 225.5 L1360.0 224.3 L1352.7 219.1 L1351.5 218.2 L1345.5 213.3 L1341.9 210.9 L1338.2 208.0 L1330.9 204.3 L1329.1 203.6 L1323.6 200.9 L1316.4 198.2 L1311.1 196.4 L1309.1 195.5 L1301.8 192.5 L1294.5 189.9 L1292.3 189.1 L1287.3 186.5 L1280.0 181.9 L1279.8 181.8 L1272.7 174.8 L1272.5 174.5 L1268.0 167.3 L1265.5 164.2 L1261.8 160.0 L1258.2 158.0 L1250.9 155.1 L1243.6 153.0 L1236.4 153.1 L1229.1 157.4 L1221.8 159.4 L1214.5 159.5 L1207.3 157.7 L1200.0 153.3 L1199.3 152.7 L1194.5 145.5 L1192.7 143.4 L1185.5 138.7 L1178.2 140.2 L1170.9 144.1 L1167.9 145.5 L1163.6 147.2 L1156.4 147.9 L1149.1 148.2 L1141.8 148.7 L1134.5 149.3 L1127.3 150.1 L1120.0 150.4 L1112.7 149.5 L1105.5 147.8 L1098.2 146.4 L1093.0 145.5 L1090.9 145.1 L1083.6 143.4 L1076.4 141.4 L1069.1 138.9 L1067.4 138.2 L1061.8 133.9 L1059.1 130.9 L1055.5 123.6 L1054.5 121.9 L1051.3 116.4 L1047.3 113.6 L1040.0 110.8 L1032.7 109.2 L1032.2 109.1 L1025.5 107.9 L1018.2 106.3 L1010.9 104.5 L1003.6 103.7 L996.4 104.5 L989.1 106.5 L981.8 108.7 L980.3 109.1 L974.5 110.5 L967.3 111.2 L960.0 110.5 L954.0 109.1 L952.7 108.8 L945.5 106.4 L938.2 104.4 L930.9 103.1 L923.6 103.0 L916.4 104.9 L909.4 109.1 L909.1 109.3 L901.8 114.9 L899.8 116.4 L894.5 120.2 L891.2 123.6 L888.7 130.9 L887.9 138.2 L887.3 142.5 L886.8 145.5 L885.7 152.7 L884.5 160.0 L880.9 167.3 L880.0 168.1 L872.7 170.7 L865.5 171.8 L858.2 172.3 L850.9 172.7 L843.6 173.3 L836.4 173.9 L829.1 174.2 L821.8 174.4 L821.1 174.5 L814.5 176.7 L807.3 180.4 L802.3 181.8 L800.0 185.0 L799.0 189.1 L800.0 190.1 L806.7 196.4 L807.3 196.7 L814.5 202.6 L815.5 203.6 L821.8 207.9 L825.2 210.9 L829.1 213.9 L834.8 218.2 L836.4 220.4 L840.6 225.5 L836.4 232.2 L835.6 232.7 L829.1 235.0 L821.8 237.6 L820.3 240.0 L817.4 247.3 L814.5 253.3 L814.0 254.5 L810.7 261.8 L807.3 268.5 L807.0 269.1 L804.1 276.4 L801.3 283.6 L800.0 290.3 L799.9 290.9 L800.0 292.1 L800.7 298.2 L803.7 305.5 L807.3 309.4 L813.5 312.7 L814.5 313.1 L821.8 314.2 L829.1 315.0 L836.4 317.8 L838.5 320.0 L843.6 327.0 L843.9 327.3 L850.4 334.5 L850.9 335.2 L855.5 341.8 L857.8 349.1 L856.2 356.4 L856.9 363.6 L856.6 370.9 L855.8 378.2 L855.8 385.5 L855.8 392.7 L855.5 400.0 L854.9 407.3 L854.6 414.5 L854.9 421.8 L856.0 429.1 L858.2 434.4 L859.1 436.4 L865.5 443.5 L865.6 443.6 L872.6 450.9 L872.7 451.1 L880.0 456.8 L882.0 458.2 L887.3 461.2 L893.0 465.5 L894.5 466.8 L900.7 472.7 L901.8 473.9 L908.4 480.0 L909.1 480.6 L916.4 484.6 L921.5 487.3 L923.6 488.8 L930.9 492.7 L933.2 494.5 L932.0 501.8 L930.9 505.6 L930.1 509.1 L926.5 516.4 L923.6 520.4 L921.0 523.6 L916.5 530.9 L916.4 531.3 L914.6 538.2 L916.4 544.1 L916.9 545.5 L923.6 551.1 L926.1 552.7 L930.9 556.0 L935.9 560.0 L938.2 562.2 L944.9 567.3 L945.5 567.6 L952.7 569.4 L960.0 569.9 L967.3 569.5 L972.2 567.3 L974.5 565.6 L980.3 560.0 L981.8 558.9 L989.1 553.2 L989.5 552.7 L994.9 545.5 L996.4 542.4 L998.1 538.2 L1001.9 530.9 L1003.6 528.4 L1006.8 523.6 L1010.9 517.7 L1018.2 518.2 L1024.1 523.6 L1025.5 526.4 L1026.3 530.9 L1025.9 538.2 L1025.5 539.5 L1022.8 545.5 L1018.5 552.7 L1018.2 553.2 L1013.3 560.0 L1010.9 566.4 L1010.6 567.3 L1010.9 568.7 L1012.5 574.5 L1018.2 581.3 L1018.6 581.8 L1025.4 589.1 L1025.5 589.1 L1029.8 596.4 L1032.7 600.8 L1035.1 603.6 L1040.0 606.5 L1047.3 607.8 L1054.5 608.6 L1061.8 609.5 L1069.1 609.9 L1076.4 608.6 L1083.6 605.0 L1086.0 603.6 L1090.9 600.0 L1096.7 596.4 L1098.2 595.4 L1105.5 591.7 L1112.7 590.9 L1120.0 592.8 L1127.3 596.3 L1127.4 596.4 L1134.5 599.4 L1141.8 601.7 L1149.1 602.1 L1156.4 600.5 L1163.6 597.3 L1165.2 596.4 L1170.9 592.3 L1175.1 589.1 L1178.2 586.7 L1185.5 582.4 L1188.4 581.8 L1192.7 581.0 L1200.0 581.5 L1202.3 581.8 L1207.3 582.6 L1214.5 583.7 L1221.8 584.7 L1229.1 585.7 L1236.4 587.0 L1243.0 589.1 L1243.6 589.3 L1250.9 591.4 L1258.2 593.2 L1265.5 595.5 L1269.9 596.4 L1272.7 597.3 L1280.0 598.5 L1287.3 599.8 L1294.5 599.5 L1301.8 597.5 L1304.9 596.4 L1309.1 594.1 L1316.4 590.9 L1323.6 589.9 L1325.3 596.4 L1323.6 600.1 L1321.9 603.6 L1323.6 607.4 L1325.1 610.9 L1330.9 617.3 L1331.6 618.2 L1336.3 625.5 L1338.2 627.9 L1340.2 632.7 L1341.5 640.0 L1340.0 647.3 L1338.2 651.4 L1336.5 654.5 L1334.9 661.8 L1335.4 669.1 L1338.2 670.8 L1345.5 674.1 L1351.8 676.4 L1352.7 676.6 L1360.0 678.6 L1367.3 680.6 L1374.5 682.7 L1377.8 683.6 L1381.8 684.8 L1389.1 687.3 L1396.4 690.3 L1397.5 690.9 L1403.6 697.1 L1404.3 698.2 L1409.0 705.5 L1410.9 709.6 L1412.8 712.7 L1415.5 720.0 L1417.6 727.3 L1418.2 729.3 L1420.2 734.5 L1422.7 741.8 L1425.2 749.1 L1425.5 749.6 L1428.8 756.4 L1432.7 762.0 L1433.9 763.6 L1440.0 768.9 L1443.5 770.9 L1447.3 772.8 L1454.5 774.5 L1461.8 775.4 L1469.1 776.4 L1476.4 777.8 L1478.5 778.2 L1483.6 778.8 L1490.9 779.2 L1498.2 779.3 L1505.5 784.6 L1505.7 785.5 L1508.6 792.7 L1512.7 795.8 L1520.0 798.7 L1527.3 799.7 L1530.7 800.0 L1534.5 800.2 L1541.8 801.2 L1549.1 802.8 L1556.4 805.1 L1563.6 806.9 L1565.0 807.3 L1570.9 808.4 L1578.2 809.2 L1585.5 809.2 L1592.7 808.6 L1600.0 807.9"/>
  <path class="contour" d="M1600.0 980.1 L1592.7 980.2 L1585.5 980.4 L1581.6 981.8 L1578.2 982.3 L1570.9 983.8 L1563.6 985.6 L1556.4 988.4 L1555.6 989.1 L1549.1 991.9 L1543.6 996.4 L1541.8 997.1 L1534.5 1000.2 L1528.1 1003.6 L1527.3 1004.0 L1520.0 1006.2 L1512.7 1004.7 L1510.4 1003.6 L1505.5 1001.7 L1498.2 998.1 L1495.3 996.4 L1490.9 994.1 L1483.6 991.1 L1476.4 989.4 L1473.9 989.1 L1469.1 988.5 L1461.8 987.8 L1454.5 987.5 L1447.3 987.3 L1440.0 986.9 L1432.7 986.2 L1425.5 985.0 L1418.2 983.4 L1412.0 981.8 L1410.9 981.5 L1403.6 978.9 L1396.4 975.2 L1395.1 974.5 L1389.1 971.6 L1381.8 969.4 L1374.5 968.9 L1367.3 969.3 L1360.0 970.8 L1352.7 973.8 L1351.5 974.5 L1345.5 979.2 L1341.5 981.8 L1338.2 984.3 L1330.9 989.1 L1330.9 989.1 L1323.6 993.9 L1319.1 996.4 L1316.4 998.0 L1309.1 1001.5 L1304.9 1003.6 L1301.8 1005.4 L1294.5 1009.3 L1291.3 1010.9 L1287.3 1012.8 L1280.0 1015.1 L1272.7 1017.2 L1269.0 1018.2 L1265.5 1019.2 L1258.2 1021.1 L1250.9 1023.5 L1246.5 1025.5 L1243.6 1028.3 L1239.4 1032.7 L1236.4 1036.2 L1232.6 1040.0 L1229.1 1043.4 L1225.0 1047.3 L1221.8 1049.7 L1214.5 1052.1 L1208.9 1054.5 L1207.3 1056.2 L1202.7 1061.8 L1200.0 1065.7 L1192.7 1065.6 L1185.8 1061.8 L1185.5 1061.7 L1178.2 1056.1 L1176.5 1054.5 L1170.9 1050.9 L1165.5 1047.3 L1163.6 1046.4 L1156.4 1043.3 L1149.1 1040.5 L1146.9 1040.0 L1141.8 1039.2 L1134.5 1039.1 L1127.3 1039.7 L1125.5 1040.0 L1120.0 1041.3 L1112.7 1043.3 L1105.5 1045.6 L1102.1 1047.3 L1098.2 1050.8 L1095.2 1054.5 L1092.8 1061.8 L1092.1 1069.1 L1090.9 1072.3 L1087.7 1076.4 L1083.6 1078.3 L1076.4 1080.9 L1069.1 1083.2 L1068.1 1083.6 L1061.8 1087.2 L1058.5 1090.9 L1054.5 1094.7 L1051.5 1098.2 L1047.3 1104.0 L1046.2 1105.5 L1045.2 1112.7 L1047.3 1116.4 L1049.1 1120.0 L1054.5 1126.9 L1054.8 1127.3 L1054.5 1129.2 L1051.9 1134.5 L1047.3 1135.7 L1040.0 1135.8 L1032.7 1135.2 L1025.5 1135.0 L1018.2 1138.4 L1016.1 1141.8 L1011.4 1149.1 L1010.9 1149.8 L1005.2 1156.4 L1003.6 1157.4 L996.4 1159.6 L989.1 1160.1 L981.8 1159.7 L974.5 1158.1 L967.4 1156.4 L967.3 1156.3 L960.0 1155.2 L952.7 1155.4 L949.4 1156.4 L945.5 1157.2 L938.2 1159.7 L930.9 1160.4 L923.6 1159.9 L916.4 1159.1 L909.1 1158.1 L901.8 1157.1 L898.7 1156.4 L894.5 1155.6 L887.3 1153.5 L880.0 1151.3 L872.8 1149.1 L872.7 1149.1 L865.5 1146.9 L858.2 1144.9 L850.9 1142.9 L847.4 1141.8 L843.6 1140.6 L836.4 1138.4 L829.1 1136.3 L823.5 1134.5 L821.8 1134.1 L814.5 1132.0 L807.3 1130.3 L800.0 1129.0 L792.7 1128.3 L785.5 1128.2 L778.2 1127.9 L770.9 1127.7 L763.6 1128.8 L756.4 1130.3 L749.1 1131.8 L741.8 1133.9 L740.3 1134.5 L734.5 1138.3 L731.9 1141.8 L727.3 1146.3 L725.0 1149.1 L720.0 1153.4 L715.4 1156.4 L712.7 1158.2 L708.7 1163.6 L708.3 1170.9 L705.5 1175.8 L702.1 1178.2 L698.2 1179.9 L691.4 1185.5 L690.9 1186.6 L690.0 1192.7 L689.4 1200.0"/>
  <path class="contour contour-major" d="M1098.4 0.0 L1099.4 7.3 L1104.5 14.5 L1105.5 15.8 L1112.1 21.8 L1112.7 22.5 L1118.5 29.1 L1120.0 31.3 L1123.4 36.4 L1126.8 43.6 L1127.3 45.1 L1132.6 50.9 L1134.5 51.7 L1136.2 50.9 L1141.8 47.9 L1144.4 43.6 L1145.1 36.4 L1143.3 29.1 L1141.8 24.8 L1140.1 21.8 L1136.6 14.5 L1134.6 7.3 L1137.9 0.0"/>
  <path class="contour contour-major" d="M1259.5 0.0 L1264.5 7.3 L1264.9 14.5 L1258.2 21.5 L1257.9 21.8 L1250.9 28.3 L1250.5 29.1 L1246.6 36.4 L1244.6 43.6 L1243.6 44.6 L1236.6 50.9 L1236.4 51.0 L1229.1 53.7 L1221.8 55.3 L1214.5 56.9 L1211.4 58.2 L1207.3 60.0 L1200.4 65.5 L1200.0 66.4 L1198.4 72.7 L1199.8 80.0 L1200.0 80.3 L1205.5 87.3 L1207.3 88.8 L1214.5 91.4 L1221.8 92.7 L1229.1 94.1 L1230.9 94.5 L1236.4 95.7 L1243.6 97.8 L1250.9 100.9 L1252.4 101.8 L1258.2 107.1 L1260.0 109.1 L1265.5 114.8 L1267.4 116.4 L1272.7 119.9 L1280.0 123.5 L1280.3 123.6 L1287.3 127.3 L1293.1 130.9 L1294.5 131.8 L1301.8 136.7 L1304.0 138.2 L1309.1 141.5 L1315.6 145.5 L1316.4 145.9 L1323.6 149.5 L1330.9 152.1 L1333.5 152.7 L1338.2 153.8 L1345.5 154.8 L1352.7 155.5 L1360.0 156.5 L1367.3 158.5 L1370.3 160.0 L1374.5 162.5 L1379.8 167.3 L1381.8 169.7 L1385.0 174.5 L1388.2 181.8 L1389.1 183.4 L1392.2 189.1 L1396.4 193.5 L1400.0 196.4 L1403.6 199.3 L1409.9 203.6 L1410.9 204.4 L1418.2 208.1 L1425.5 208.7 L1432.7 207.6 L1440.0 206.6 L1447.3 207.0 L1454.5 209.1 L1458.5 210.9 L1461.8 212.9 L1469.1 216.5 L1474.0 218.2 L1476.4 219.2 L1483.6 222.0 L1490.9 224.6 L1493.6 225.5 L1498.2 226.7 L1505.5 227.8 L1512.7 227.7 L1520.0 226.7 L1526.4 225.5 L1527.3 225.3 L1534.5 223.8 L1541.8 222.9 L1549.1 222.5 L1556.4 222.7 L1563.6 223.5 L1570.9 224.8 L1574.4 225.5 L1578.2 226.4 L1585.5 227.9 L1592.7 229.5 L1600.0 232.2"/>
  <path class="contour contour-major" d="M627.8 1200.0 L632.7 1198.2 L640.0 1194.5 L641.4 1192.7 L642.7 1185.5 L641.6 1178.2 L640.6 1170.9 L640.0 1166.4 L638.9 1163.6 L635.3 1156.4 L632.7 1152.2 L630.5 1149.1 L625.5 1142.6 L624.7 1141.8 L618.2 1135.3 L611.1 1134.5 L610.9 1134.5 L610.9 1134.5 L610.4 1141.8 L610.9 1142.7 L615.3 1149.1 L618.2 1152.0 L623.1 1156.4 L625.5 1159.8 L628.6 1163.6 L630.7 1170.9 L630.0 1178.2 L625.5 1185.3 L625.3 1185.5 L618.2 1189.0 L610.9 1189.0 L603.6 1188.5 L596.4 1186.0 L595.7 1185.5 L589.1 1179.3 L586.7 1178.2 L581.8 1176.5 L574.5 1174.4 L567.3 1172.3 L564.4 1170.9 L560.0 1168.8 L552.7 1165.9 L546.0 1163.6 L545.5 1163.4 L538.2 1160.4 L530.9 1157.5 L527.8 1156.4 L523.6 1154.6 L516.4 1151.7 L510.7 1149.1 L509.1 1148.3 L501.8 1144.5 L496.7 1141.8 L494.5 1140.7 L487.3 1137.9 L480.0 1135.9 L475.2 1134.5 L472.7 1133.6 L465.5 1130.0 L459.8 1127.3 L458.2 1126.5 L450.9 1123.8 L443.6 1121.8 L436.4 1120.5 L430.9 1120.0 L429.1 1119.7 L421.8 1119.0 L414.5 1118.2 L407.3 1116.7 L400.0 1113.7 L398.4 1112.7 L392.9 1105.5 L392.7 1105.4 L385.5 1102.7 L378.2 1100.8 L370.9 1099.6 L363.6 1099.4 L356.4 1099.8 L349.1 1100.4 L341.8 1100.9 L334.5 1100.4 L330.8 1098.2 L334.5 1090.9 L332.4 1083.6 L334.5 1082.8 L341.8 1081.3 L349.1 1080.4 L356.4 1080.0 L363.6 1079.9 L370.9 1081.1 L376.7 1083.6 L378.2 1084.1 L385.5 1085.0 L392.7 1085.0 L400.0 1084.9 L407.3 1084.6 L414.5 1084.1 L419.1 1083.6 L421.8 1083.1 L429.1 1080.7 L436.0 1076.4 L436.4 1076.1 L443.6 1070.0 L444.6 1069.1 L450.9 1065.1 L455.6 1061.8 L458.2 1060.3 L464.8 1054.5 L465.5 1054.0 L472.0 1047.3 L472.7 1046.4 L479.1 1040.0 L480.0 1038.5 L482.2 1032.7 L482.2 1025.5 L481.7 1018.2 L482.0 1010.9 L483.3 1003.6 L485.3 996.4 L487.3 990.1 L487.6 989.1 L489.8 981.8 L491.6 974.5 L492.9 967.3 L493.7 960.0 L493.3 952.7 L491.0 945.5 L487.3 938.2 L487.2 938.2 L485.0 930.9 L484.3 923.6 L484.4 916.4 L485.1 909.1 L487.1 901.8 L487.3 901.5 L491.9 894.5 L494.5 892.1 L501.8 888.1 L505.6 887.3 L509.1 886.7 L516.4 886.1 L523.6 885.6 L530.9 885.8 L536.9 887.3 L538.2 891.6 L538.9 894.5 L538.2 895.2 L530.9 901.2 L530.1 901.8 L525.0 909.1 L524.9 916.4 L528.2 923.6 L530.9 928.5 L532.6 930.9 L537.8 938.2 L538.2 938.6 L545.5 942.2 L552.3 945.5 L552.7 945.8 L555.7 945.5 L560.0 945.2 L562.8 945.5 L567.3 946.0 L574.5 948.8 L581.8 951.9 L583.6 952.7 L589.1 956.5 L592.6 960.0 L596.4 965.3 L597.5 967.3 L603.6 974.4 L603.8 974.5 L609.9 981.8 L610.9 985.2 L612.8 989.1 L614.6 996.4 L617.0 1003.6 L618.2 1005.0 L625.1 1010.9 L625.5 1011.0 L632.7 1012.8 L640.0 1014.6 L647.3 1016.7 L650.7 1018.2 L654.5 1019.0 L661.8 1021.8 L666.3 1025.5 L669.1 1026.8 L676.4 1031.5 L678.3 1032.7 L683.6 1034.8 L690.9 1037.3 L698.2 1039.5 L700.7 1040.0 L705.5 1040.6 L712.7 1042.1 L720.0 1043.8 L727.3 1045.0 L734.5 1045.4 L741.8 1045.0 L749.1 1044.5 L756.4 1043.6 L763.6 1042.7 L770.9 1041.7 L778.2 1040.5 L780.8 1040.0 L785.5 1038.8 L792.7 1036.6 L797.6 1032.7 L798.3 1025.5 L799.6 1018.2 L800.0 1017.9 L807.3 1015.8 L814.5 1011.8 L815.8 1010.9 L821.8 1006.3 L824.9 1003.6 L829.1 1001.3 L836.4 997.5 L837.8 996.4 L843.6 993.8 L850.3 989.1 L850.9 988.8 L858.2 983.1 L859.3 981.8 L865.3 974.5 L865.5 974.3 L871.6 967.3 L872.7 966.4 L880.0 960.8 L881.2 960.0 L887.3 956.9 L894.4 952.7 L894.5 952.7 L901.8 950.1 L909.1 947.2 L913.5 945.5 L916.4 944.5 L923.6 942.7 L930.9 940.9 L938.2 939.5 L945.5 939.6 L952.7 940.9 L960.0 943.0 L965.6 945.5 L967.3 946.5 L974.5 952.0 L975.4 952.7 L981.8 958.5 L983.8 960.0 L989.1 964.2 L994.1 967.3 L996.4 968.7 L1003.6 974.3 L1004.0 974.5 L1010.9 979.9 L1015.0 981.8 L1018.2 983.4 L1025.5 986.0 L1032.7 988.6 L1034.0 989.1 L1040.0 990.9 L1047.3 993.3 L1054.5 996.0 L1055.9 996.4 L1061.8 997.6 L1069.1 998.1 L1076.4 998.8 L1083.6 1000.0 L1090.9 1001.1 L1098.2 1001.7 L1105.5 1001.7 L1112.7 1001.2 L1120.0 1000.5 L1127.3 999.8 L1134.5 999.6 L1141.8 1000.5 L1149.1 1002.1 L1156.4 1002.8 L1163.6 1001.2 L1170.9 997.5 L1172.5 996.4 L1178.2 989.4 L1178.5 989.1 L1185.5 986.3 L1192.7 985.3 L1200.0 986.0 L1207.3 987.8 L1210.8 989.1 L1214.5 990.6 L1221.8 993.5 L1229.1 996.0 L1232.3 996.4 L1236.4 996.7 L1238.2 996.4 L1243.6 995.0 L1250.9 991.7 L1257.1 989.1 L1258.2 988.6 L1265.5 986.1 L1272.7 984.3 L1280.0 983.4 L1287.3 982.7 L1291.8 981.8 L1294.5 981.1 L1301.8 978.3 L1309.1 975.2 L1310.4 974.5 L1316.4 970.6 L1321.2 967.3 L1323.6 965.8 L1330.9 961.5 L1333.4 960.0 L1338.2 957.5 L1345.5 954.5 L1352.1 952.7 L1352.7 952.6 L1360.0 950.9 L1367.3 949.6 L1374.5 948.3 L1381.8 946.4 L1385.5 945.5 L1389.1 944.4 L1396.4 942.9 L1403.6 942.1 L1410.9 942.8 L1418.2 944.8 L1421.8 945.5 L1425.5 946.4 L1429.8 945.5 L1432.7 944.6 L1440.0 941.6 L1443.4 938.2 L1447.3 932.1 L1447.7 930.9 L1450.9 923.6 L1454.5 918.3 L1456.5 916.4 L1461.8 911.6 L1469.0 909.1 L1469.1 909.1 L1476.4 906.7 L1483.6 905.1 L1490.9 903.8 L1497.5 901.8 L1494.9 894.5 L1490.9 892.7 L1485.2 887.3 L1483.6 886.1 L1478.5 880.0 L1476.4 877.1 L1471.8 872.7 L1469.1 870.0 L1461.8 866.4 L1459.8 865.5 L1456.4 858.2 L1456.6 850.9 L1457.1 843.6 L1454.5 836.9 L1454.4 836.4 L1448.7 829.1 L1447.3 827.9 L1442.5 821.8 L1440.0 819.1 L1436.1 814.5 L1432.7 810.9 L1427.4 807.3 L1425.5 806.1 L1418.2 801.7 L1416.7 800.0 L1410.9 792.8 L1410.9 792.7 L1408.1 785.5 L1406.2 778.2 L1403.6 771.7 L1403.3 770.9 L1398.4 763.6 L1396.4 760.7 L1393.2 756.4 L1389.1 749.2 L1389.0 749.1 L1386.1 741.8 L1384.0 734.5 L1382.3 727.3 L1381.8 722.4 L1381.5 720.0 L1380.1 712.7 L1374.5 706.7 L1372.4 705.5 L1367.3 703.6 L1360.0 701.8 L1352.7 700.2 L1345.5 698.3 L1345.0 698.2 L1338.2 696.3 L1330.9 694.0 L1323.6 691.6 L1321.8 690.9 L1316.4 688.5 L1309.1 684.7 L1307.2 683.6 L1301.8 680.2 L1296.4 676.4 L1294.5 675.0 L1287.3 670.0 L1285.6 669.1 L1280.0 665.7 L1272.7 662.1 L1272.3 661.8 L1265.5 657.2 L1260.1 654.5 L1258.2 653.4 L1250.9 650.8 L1243.6 649.3 L1236.4 647.8 L1233.3 647.3 L1229.1 646.5 L1221.8 645.9 L1214.5 645.7 L1207.3 645.8 L1200.0 646.5 L1195.8 647.3 L1192.7 647.9 L1185.5 649.5 L1178.2 649.3 L1170.9 647.5 L1170.3 647.3 L1163.6 643.6 L1157.0 640.0 L1156.4 639.7 L1149.1 637.3 L1141.8 636.8 L1134.5 637.4 L1127.3 638.6 L1120.0 639.6 L1112.7 639.7 L1105.5 638.8 L1098.2 637.7 L1090.9 636.6 L1083.6 635.8 L1076.4 634.7 L1069.1 633.4 L1061.8 633.6 L1054.5 633.5 L1047.3 632.9 L1040.0 633.5 L1032.7 634.8 L1025.5 636.4 L1018.2 637.0 L1010.9 636.9 L1003.6 636.1 L996.4 634.8 L989.1 634.1 L981.8 633.8 L974.5 633.6 L967.3 633.0 L965.3 632.7 L960.0 631.9 L952.7 630.3 L945.5 628.5 L938.2 626.9 L930.9 625.8 L923.6 625.6 L916.4 626.4 L909.1 627.9 L901.8 629.3 L894.5 630.2 L887.3 630.4 L880.0 629.8 L872.7 628.9 L865.5 628.1 L858.2 627.1 L850.9 625.9 L848.7 625.5 L843.6 624.2 L836.4 621.8 L829.1 619.9 L821.8 618.9 L814.5 618.4 L811.3 618.2 L807.3 617.9 L800.0 617.1 L792.7 615.7 L785.5 613.4 L778.2 611.0 L778.0 610.9 L770.9 607.3 L763.6 603.6 L763.6 603.6 L756.4 596.8 L755.9 596.4 L749.1 589.2 L749.0 589.1 L745.4 581.8 L745.5 574.5 L749.1 569.6 L751.3 567.3 L756.4 564.8 L763.6 561.7 L767.8 560.0 L770.9 558.4 L778.2 554.1 L780.1 552.7 L785.5 547.5 L787.9 545.5 L792.7 541.7 L799.0 538.2 L800.0 537.6 L807.3 534.0 L813.4 530.9 L814.5 529.9 L819.9 523.6 L821.6 516.4 L820.3 509.1 L817.4 501.8 L817.6 494.5 L821.1 487.3 L821.8 486.0 L826.1 480.0 L825.1 472.7 L821.8 467.9 L820.3 465.5 L815.0 458.2 L814.5 457.4 L812.0 450.9 L812.2 443.6 L814.0 436.4 L814.5 434.9 L816.2 429.1 L817.8 421.8 L819.7 414.5 L821.8 408.4 L822.2 407.3 L824.9 400.0 L827.5 392.7 L829.1 387.4 L829.6 385.5 L829.9 378.2 L829.1 375.8 L826.9 370.9 L821.8 366.5 L817.9 363.6 L814.5 361.6 L807.3 358.3 L800.0 356.9 L792.7 357.0 L787.3 356.4 L785.5 356.1 L778.2 352.5 L774.8 349.1 L771.7 341.8 L770.9 339.9 L768.2 334.5 L763.6 329.2 L762.1 327.3 L756.4 320.7 L755.9 320.0 L751.1 312.7 L749.1 305.5 L749.6 298.2 L749.1 295.7 L748.2 290.9 L747.5 283.6 L748.5 276.4 L749.1 274.9 L751.5 269.1 L756.4 263.9 L758.1 261.8 L763.6 256.5 L765.7 254.5 L769.4 247.3 L764.6 240.0 L763.6 238.9 L759.0 232.7 L756.4 228.6 L749.1 227.5 L741.8 226.6 L734.6 225.5 L734.5 225.4 L727.3 224.4 L720.0 223.3 L712.7 222.4 L705.5 222.0 L698.2 222.4 L690.9 222.8 L683.6 223.0 L676.4 223.1 L669.1 223.4 L661.8 224.0 L654.5 225.0 L652.9 225.5 L647.3 226.6 L640.0 228.9 L632.7 232.4 L632.1 232.7 L625.5 235.1 L618.2 238.8 L616.1 240.0 L610.9 242.3 L603.6 245.6 L599.7 247.3 L596.4 248.8 L589.1 252.1 L584.3 254.5 L581.8 255.9 L574.5 260.0 L570.7 261.8 L567.3 263.2 L560.0 264.7 L552.7 265.6 L545.5 267.4 L541.8 269.1 L538.2 270.7 L530.9 275.2 L529.4 276.4 L523.6 282.1 L522.2 283.6 L516.7 290.9 L516.4 291.4 L509.9 298.2 L509.1 298.9 L501.8 303.4 L497.3 305.5 L494.5 306.6 L487.3 308.8 L480.0 310.6 L472.7 312.4 L471.8 312.7 L465.5 314.6 L458.2 317.3 L451.6 320.0 L450.9 320.3 L443.6 323.6 L436.4 326.7 L435.1 327.3 L429.1 330.0 L421.8 333.1 L418.4 334.5 L414.5 336.1 L407.3 338.9 L400.0 341.4 L398.7 341.8 L392.7 343.6 L385.5 345.3 L378.2 347.5 L374.4 349.1 L370.9 350.5 L363.6 353.5 L357.0 356.4 L356.4 356.7 L349.1 360.5 L342.8 363.6 L341.8 364.1 L334.5 367.0 L327.3 370.1 L325.4 370.9 L320.0 373.7 L312.7 376.7 L308.9 378.2 L305.5 379.8 L298.2 384.9 L297.6 385.5 L291.8 392.7 L290.9 393.9 L286.0 400.0 L283.6 402.8 L278.9 407.3 L276.4 410.0 L271.5 414.5 L269.1 416.5 L263.1 421.8 L261.8 422.9 L255.2 429.1 L254.5 429.6 L247.3 435.1 L245.6 436.4 L240.0 440.2 L234.9 443.6 L232.7 445.4 L225.5 449.2 L220.7 450.9 L218.2 452.1 L210.9 456.5 L207.7 458.2 L203.6 461.2 L196.4 462.6 L189.1 464.3 L187.4 465.5 L181.8 467.9 L174.5 467.2 L167.3 466.0 L160.0 471.3 L158.7 472.7 L152.7 479.9 L152.5 480.0 L145.5 482.5 L138.2 484.3 L132.0 487.3 L130.9 487.7 L123.6 490.8 L119.1 494.5 L116.4 496.4 L111.2 501.8 L109.1 504.2 L105.7 509.1 L102.6 516.4 L101.8 519.0 L100.7 523.6 L99.2 530.9 L96.5 538.2 L94.5 541.2 L91.9 545.5 L87.3 552.7 L87.3 552.8 L84.1 560.0 L83.3 567.3 L83.5 574.5 L85.5 581.8 L86.6 589.1 L86.0 596.4 L80.0 603.6 L79.9 603.6 L72.7 608.1 L68.4 610.9 L65.5 612.4 L58.2 613.7 L50.9 613.2 L43.6 615.4 L41.6 618.2 L36.4 623.4 L29.1 623.8 L21.8 620.9 L18.7 618.2 L15.9 610.9 L17.4 603.6 L15.1 596.4 L14.5 596.2 L7.3 594.2 L0.0 592.5"/>
  <path class="contour contour-major" d="M1600.0 252.6 L1592.7 252.8 L1585.5 253.7 L1582.3 254.5 L1578.2 255.7 L1570.9 258.3 L1564.7 261.8 L1563.6 262.5 L1556.4 268.1 L1555.1 269.1 L1549.1 272.9 L1541.8 276.0 L1539.1 276.4 L1534.5 277.1 L1527.3 277.4 L1522.9 283.6 L1522.3 290.9 L1520.8 298.2 L1522.7 305.5 L1527.3 310.1 L1530.2 312.7 L1534.5 318.0 L1535.6 320.0 L1538.2 327.3 L1540.7 334.5 L1541.8 338.0 L1543.1 341.8 L1545.5 349.1 L1548.2 356.4 L1549.1 359.1 L1550.6 363.6 L1551.6 370.9 L1550.6 378.2 L1549.7 385.5 L1549.1 390.6 L1548.8 392.7 L1546.7 400.0 L1541.8 406.3 L1541.0 407.3 L1537.9 414.5 L1539.5 421.8 L1541.8 426.7 L1544.1 429.1 L1549.1 432.6 L1556.4 434.7 L1563.6 436.3 L1564.1 436.4 L1570.9 440.4 L1578.2 441.4 L1585.5 442.4 L1592.7 443.1 L1596.2 443.6 L1592.7 445.1 L1585.5 446.9 L1578.2 446.1 L1570.9 445.1 L1563.6 444.8 L1556.4 445.2 L1549.1 445.3 L1541.8 445.7 L1534.5 449.8 L1533.7 450.9 L1530.0 458.2 L1528.6 465.5 L1534.5 469.9 L1541.8 470.0 L1549.1 469.5 L1556.4 469.6 L1563.6 469.1 L1570.9 468.8 L1576.5 472.7 L1578.2 476.6 L1585.5 476.5 L1592.7 476.6 L1598.4 480.0 L1600.0 480.9"/>
  <path class="contour contour-major" d="M322.9 1200.0 L320.0 1198.1 L312.7 1194.5 L308.1 1192.7 L305.5 1191.6 L298.2 1190.0 L290.9 1189.8 L283.6 1192.1 L282.8 1192.7 L276.4 1199.4 L275.3 1200.0"/>
  <path class="contour" d="M1580.0 0.0 L1582.6 7.3 L1578.9 14.5 L1578.2 15.1 L1571.6 21.8 L1570.9 22.1 L1563.6 25.6 L1556.4 28.4 L1554.4 29.1 L1549.1 30.4 L1541.8 31.9 L1534.5 33.3 L1527.3 35.1 L1523.9 36.4 L1520.0 38.3 L1512.7 43.3 L1512.4 43.6 L1508.4 50.9 L1505.9 58.2 L1505.5 59.3 L1502.0 65.5 L1498.2 68.6 L1490.9 70.5 L1485.7 72.7 L1483.6 73.9 L1477.0 80.0 L1476.4 80.6 L1470.0 87.3 L1469.1 92.4 L1468.8 94.5 L1469.1 96.1 L1470.1 101.8 L1473.6 109.1 L1476.2 116.4 L1476.4 118.6 L1476.6 123.6 L1476.4 130.9 L1477.2 138.2 L1483.6 145.5 L1483.6 145.5 L1490.9 148.6 L1498.2 150.7 L1505.5 151.6 L1512.7 151.3 L1520.0 150.6 L1527.3 150.0 L1534.5 149.9 L1541.8 150.3 L1549.1 152.1 L1550.6 152.7 L1556.4 155.7 L1561.4 160.0 L1563.6 161.1 L1570.9 163.5 L1578.2 165.7 L1585.0 167.3 L1585.5 167.4 L1592.7 168.5 L1600.0 170.3"/>
  <path class="contour" d="M1352.7 35.7 L1350.6 36.4 L1345.5 40.0 L1342.6 43.6 L1345.5 48.9 L1347.1 50.9 L1352.7 54.5 L1359.0 58.2 L1360.0 58.9 L1367.3 61.8 L1374.5 63.0 L1381.8 63.7 L1389.1 64.1 L1396.4 64.8 L1400.7 65.5 L1403.6 65.8 L1410.9 67.0 L1418.2 68.5 L1425.5 70.0 L1432.7 71.5 L1437.6 72.7 L1440.0 73.1 L1447.3 73.8 L1454.5 73.9 L1459.9 72.7 L1460.5 65.5 L1454.5 58.5 L1454.2 58.2 L1447.3 53.5 L1442.8 50.9 L1440.0 49.6 L1432.7 46.7 L1425.5 43.9 L1424.6 43.6 L1418.2 42.0 L1410.9 39.9 L1403.6 38.4 L1396.4 37.7 L1389.1 37.2 L1381.8 36.6 L1380.0 36.4 L1374.5 36.0 L1367.3 35.4 L1360.0 35.0 L1352.7 35.7"/>
  <path class="contour" d="M151.0 1200.0 L152.7 1195.8 L160.0 1193.0 L161.0 1192.7 L167.3 1191.6 L174.5 1188.5 L180.9 1185.5 L181.8 1184.7 L189.1 1179.6 L191.0 1178.2 L193.2 1170.9 L194.6 1163.6 L196.4 1159.3 L197.5 1156.4 L201.0 1149.1 L203.6 1144.9 L206.1 1141.8 L210.9 1136.6 L214.0 1134.5 L218.2 1131.8 L225.5 1129.2 L232.7 1127.9 L236.2 1127.3 L240.0 1126.6 L247.3 1125.7 L254.5 1120.2 L254.7 1120.0 L258.8 1112.7 L261.8 1107.3 L262.6 1105.5 L263.7 1098.2 L261.8 1095.0 L257.9 1090.9 L254.5 1089.7 L247.3 1087.5 L240.0 1086.3 L232.7 1087.8 L227.9 1090.9 L225.5 1092.6 L218.2 1094.8 L210.9 1095.8 L203.6 1096.7 L196.4 1097.3 L189.1 1094.5 L187.4 1090.9 L189.1 1085.6 L190.2 1083.6 L189.1 1082.7 L181.8 1082.2 L174.7 1083.6 L174.5 1083.7 L174.3 1083.6 L167.3 1081.6 L165.6 1076.4 L167.3 1074.9 L173.1 1069.1 L174.5 1068.4 L181.8 1065.9 L189.1 1063.1 L191.9 1061.8 L196.4 1060.7 L203.6 1059.0 L210.9 1056.4 L214.9 1054.5 L218.2 1053.8 L225.5 1052.7 L232.7 1051.7 L240.0 1050.5 L247.3 1047.3 L247.4 1047.3 L254.5 1041.4 L256.1 1040.0 L261.8 1036.4 L267.2 1032.7 L269.1 1031.4 L276.0 1025.5 L276.4 1025.1 L283.6 1018.9 L285.5 1018.2 L290.9 1016.3 L298.2 1015.8 L305.5 1014.3 L312.7 1011.8 L314.4 1010.9 L320.0 1007.4 L324.3 1003.6 L327.3 1000.4 L331.1 996.4 L334.5 991.2 L336.7 989.1 L341.8 982.8 L342.8 981.8 L347.0 974.5 L349.1 969.0 L349.7 967.3 L352.3 960.0 L355.0 952.7 L356.4 949.6 L358.9 945.5 L362.5 938.2 L363.6 936.2 L366.9 930.9 L370.9 926.7 L374.3 923.6 L378.2 921.0 L385.5 917.3 L386.8 916.4 L392.7 911.1 L394.9 909.1 L397.9 901.8 L400.0 895.7 L401.1 894.5 L407.3 891.8 L414.5 890.6 L421.7 887.3 L421.8 887.2 L429.1 886.4 L436.4 882.8 L438.6 880.0 L442.4 872.7 L443.6 871.2 L446.2 865.5 L450.9 859.4 L451.9 858.2 L458.2 853.0 L462.0 850.9 L465.5 849.1 L472.7 847.0 L480.0 845.6 L487.3 844.0 L494.5 844.1 L501.8 846.5 L509.1 846.3 L516.4 845.5 L523.6 848.2 L526.8 850.9 L530.9 854.6 L535.9 858.2 L538.2 859.6 L545.5 862.5 L551.8 865.5 L552.7 865.8 L560.0 868.5 L567.3 871.2 L571.9 872.7 L574.5 873.4 L581.8 875.0 L589.1 876.7 L596.4 878.7 L600.9 880.0 L603.6 881.4 L610.9 885.3 L614.7 887.3 L618.2 889.8 L625.5 893.8 L627.3 894.5 L632.7 897.1 L640.0 900.0 L645.0 901.8 L647.3 903.4 L654.3 909.1 L654.5 909.5 L659.4 916.4 L661.8 917.8 L669.1 922.8 L670.1 923.6 L676.4 927.1 L683.6 930.7 L684.0 930.9 L690.9 933.6 L698.2 935.9 L705.5 937.2 L712.7 938.0 L715.0 938.2 L720.0 938.5 L727.3 938.9 L734.5 939.2 L741.8 939.6 L749.1 940.1 L756.4 939.7 L763.6 938.5 L766.2 938.2 L770.9 937.5 L778.2 935.7 L785.5 933.8 L792.7 932.6 L800.0 931.8 L807.3 931.3 L814.4 930.9 L814.5 930.9 L821.8 930.1 L829.1 929.0 L836.4 927.5 L843.6 926.6 L850.9 927.0 L858.2 927.7 L865.5 927.0 L872.7 925.9 L878.3 923.6 L880.0 922.9 L887.3 918.1 L889.1 916.4 L894.5 911.7 L898.0 909.1 L901.8 906.9 L909.1 904.3 L916.4 903.3 L923.6 903.7 L930.9 905.8 L938.2 909.0 L938.3 909.1 L945.5 913.1 L951.9 916.4 L952.7 916.7 L960.0 919.7 L967.3 922.3 L971.2 923.6 L974.5 925.0 L981.8 928.4 L986.9 930.9 L989.1 932.3 L996.4 937.1 L998.1 938.2 L1003.6 942.2 L1009.2 945.5 L1010.9 946.3 L1018.2 948.8 L1025.5 950.6 L1032.7 951.8 L1040.0 952.7 L1040.3 952.7 L1047.3 953.4 L1054.5 954.0 L1061.8 954.4 L1069.1 955.2 L1076.4 956.8 L1083.6 960.0 L1083.6 960.0 L1090.9 964.5 L1095.2 967.3 L1098.2 968.8 L1105.5 970.7 L1112.7 970.9 L1120.0 970.0 L1127.3 968.1 L1130.2 967.3 L1134.5 965.8 L1141.8 963.4 L1149.1 961.1 L1152.9 960.0 L1156.4 959.0 L1163.6 957.0 L1170.9 954.8 L1178.2 954.0 L1185.5 954.2 L1192.7 954.1 L1200.0 953.7 L1207.3 953.8 L1214.5 954.4 L1221.8 955.5 L1229.1 956.7 L1236.4 957.5 L1243.6 957.4 L1250.9 956.4 L1258.2 954.6 L1263.2 952.7 L1265.5 951.7 L1272.7 947.6 L1276.3 945.5 L1280.0 942.7 L1287.3 938.9 L1290.0 938.2 L1294.5 937.1 L1301.8 936.0 L1309.1 934.1 L1316.4 931.6 L1318.3 930.9 L1323.6 929.2 L1330.9 927.7 L1338.2 927.0 L1345.5 926.5 L1352.7 925.4 L1360.0 923.7 L1360.1 923.6 L1367.3 920.7 L1374.3 916.4 L1374.5 916.1 L1381.3 909.1 L1381.8 908.4 L1387.0 901.8 L1389.1 898.9 L1390.5 894.5 L1391.0 887.3 L1393.1 880.0 L1396.4 875.0 L1397.7 872.7 L1402.5 865.5 L1403.6 864.0 L1409.5 858.2 L1410.9 856.1 L1414.7 850.9 L1416.3 843.6 L1413.3 836.4 L1410.9 832.2 L1408.4 829.1 L1403.6 822.8 L1402.8 821.8 L1396.4 814.6 L1396.3 814.5 L1390.3 807.3 L1389.1 805.2 L1386.3 800.0 L1383.8 792.7 L1381.8 785.7 L1381.7 785.5 L1378.3 778.2 L1374.5 772.2 L1373.4 770.9 L1367.3 764.6 L1366.0 763.6 L1360.0 758.6 L1356.4 756.4 L1352.7 753.3 L1345.5 749.2 L1345.2 749.1 L1338.2 745.2 L1330.9 742.8 L1325.6 741.8 L1323.6 741.4 L1316.4 738.5 L1309.1 735.8 L1305.5 734.5 L1301.8 733.8 L1294.5 732.3 L1287.3 731.1 L1280.0 730.0 L1272.7 728.6 L1267.3 727.3 L1265.5 725.9 L1258.2 721.5 L1254.5 720.0 L1258.2 713.1 L1258.5 712.7 L1265.5 710.7 L1272.7 708.3 L1280.0 705.7 L1280.5 705.5 L1280.3 698.2 L1280.0 697.9 L1272.8 690.9 L1272.7 690.9 L1265.5 688.2 L1258.2 686.3 L1250.9 685.0 L1243.6 684.8 L1236.4 685.9 L1229.1 687.0 L1221.8 687.5 L1214.5 687.3 L1207.3 686.8 L1200.0 686.4 L1192.7 686.2 L1185.5 686.2 L1178.2 685.7 L1170.9 684.9 L1163.6 683.7 L1163.4 683.6 L1156.4 682.4 L1149.1 681.4 L1141.8 680.9 L1134.5 681.0 L1127.3 681.2 L1120.0 681.1 L1112.7 680.6 L1105.5 679.7 L1098.2 678.2 L1090.9 676.7 L1088.8 676.4 L1083.6 675.5 L1076.4 674.8 L1069.1 674.3 L1061.8 673.4 L1054.5 674.7 L1051.6 676.4 L1047.3 678.2 L1040.0 680.2 L1032.7 680.0 L1025.5 678.5 L1018.2 678.1 L1014.8 683.6 L1014.4 690.9 L1010.9 691.7 L1008.9 690.9 L1003.6 688.4 L996.4 685.4 L991.5 683.6 L989.1 682.8 L981.8 680.8 L974.5 678.8 L967.3 676.7 L966.2 676.4 L960.0 674.6 L952.7 672.9 L945.5 671.4 L938.2 670.0 L932.0 669.1 L930.9 668.9 L923.6 668.4 L916.4 668.8 L914.4 669.1 L909.1 669.9 L901.8 671.5 L894.5 673.1 L887.3 674.6 L880.0 676.0 L878.1 676.4 L872.7 677.4 L865.5 678.5 L858.2 679.4 L850.9 679.8 L843.6 679.8 L836.4 679.0 L829.1 677.8 L821.8 676.9 L814.5 676.8 L807.3 677.4 L800.0 677.7 L792.7 677.1 L788.9 676.4 L785.5 675.6 L778.2 672.9 L770.9 669.4 L770.3 669.1 L763.6 666.5 L756.4 663.8 L750.4 661.8 L749.1 661.5 L741.8 659.6 L734.5 657.3 L727.6 654.5 L727.3 654.4 L720.0 651.8 L712.7 649.2 L707.0 647.3 L705.5 646.7 L698.2 643.1 L692.9 640.0 L690.9 638.6 L683.6 633.1 L683.1 632.7 L676.4 626.6 L675.2 625.5 L669.9 618.2 L669.1 616.1 L666.9 610.9 L661.8 606.6 L657.1 603.6 L654.5 602.5 L647.3 598.7 L644.5 596.4 L640.7 589.1 L642.2 581.8 L643.7 574.5 L644.5 567.3 L647.3 561.4 L648.0 560.0 L654.5 555.9 L659.3 552.7 L661.8 551.3 L669.1 548.1 L676.4 545.8 L677.5 545.5 L683.6 543.9 L690.9 541.9 L698.2 539.4 L700.7 538.2 L705.5 535.7 L712.7 531.2 L713.1 530.9 L720.0 525.7 L722.5 523.6 L727.3 518.4 L729.0 516.4 L733.6 509.1 L734.5 507.4 L738.0 501.8 L741.8 495.8 L742.8 494.5 L749.0 487.3 L749.1 487.1 L753.7 480.0 L755.0 472.7 L753.5 465.5 L751.6 458.2 L751.2 450.9 L753.4 443.6 L756.4 439.3 L758.4 436.4 L763.6 430.3 L764.8 429.1 L770.9 422.2 L771.3 421.8 L777.0 414.5 L778.2 412.4 L781.1 407.3 L782.8 400.0 L780.1 392.7 L778.2 391.8 L770.9 390.3 L763.6 389.6 L756.4 388.7 L749.1 387.0 L745.3 385.5 L741.8 383.5 L735.0 378.2 L734.5 377.6 L730.3 370.9 L729.6 363.6 L731.3 356.4 L733.1 349.1 L732.5 341.8 L727.7 334.5 L727.3 334.1 L720.0 328.3 L718.3 327.3 L712.7 323.7 L705.5 320.1 L705.2 320.0 L698.2 316.0 L691.8 312.7 L690.9 311.7 L684.2 305.5 L683.6 304.9 L676.4 298.2 L676.4 298.2 L673.9 290.9 L674.4 283.6 L673.1 276.4 L669.1 272.4 L661.8 270.8 L654.5 271.5 L647.3 273.4 L640.0 276.1 L639.3 276.4 L632.7 279.2 L625.5 282.1 L619.8 283.6 L618.2 284.0 L610.9 284.8 L603.6 285.0 L596.4 285.0 L589.1 285.7 L581.8 286.5 L574.5 287.4 L567.3 288.7 L560.0 290.7 L559.5 290.9 L552.7 294.9 L549.1 298.2 L545.5 302.2 L542.6 305.5 L538.2 309.2 L533.4 312.7 L530.9 313.9 L523.6 316.8 L516.4 319.6 L515.3 320.0 L509.1 322.1 L501.8 324.7 L494.6 327.3 L494.5 327.3 L487.3 329.8 L480.0 331.6 L472.7 333.3 L468.9 334.5 L465.5 335.7 L458.2 338.2 L450.9 341.0 L448.7 341.8 L443.6 343.4 L436.4 345.5 L429.1 347.8 L425.5 349.1 L421.8 350.2 L414.5 352.2 L407.3 353.6 L400.0 354.6 L392.7 355.7 L389.2 356.4 L385.5 357.1 L378.2 359.0 L370.9 361.7 L366.6 363.6 L363.6 365.4 L356.4 370.2 L355.3 370.9 L349.1 375.5 L344.7 378.2 L341.8 380.6 L336.2 385.5 L334.5 387.2 L328.9 392.7 L327.3 394.5 L321.8 400.0 L320.0 401.8 L314.4 407.3 L312.7 409.3 L309.4 414.5 L307.0 421.8 L305.5 426.6 L304.4 429.1 L298.2 435.9 L297.5 436.4 L290.9 439.0 L283.6 441.5 L278.2 443.6 L276.4 444.5 L269.1 450.5 L268.6 450.9 L264.5 458.2 L262.6 465.5 L261.8 468.5 L260.4 472.7 L255.1 480.0 L254.5 480.7 L248.9 487.3 L247.3 489.8 L244.0 494.5 L240.0 501.8 L240.0 501.9 L236.8 509.1 L233.0 516.4 L232.7 516.8 L226.9 523.6 L225.5 525.2 L218.7 530.9 L218.2 531.5 L210.9 537.7 L210.4 538.2 L205.3 545.5 L203.6 549.1 L202.1 552.7 L200.2 560.0 L199.2 567.3 L198.7 574.5 L197.7 581.8 L196.4 587.0 L195.8 589.1 L193.9 596.4 L191.9 603.6 L189.1 609.2 L181.8 610.4 L180.7 610.9 L174.5 615.7 L173.3 618.2 L170.3 625.5 L167.9 632.7 L167.3 637.1 L166.9 640.0 L167.3 641.6 L168.6 647.3 L173.2 654.5 L174.5 656.1 L180.4 661.8 L181.8 663.3 L186.9 669.1 L189.1 675.6 L189.3 676.4 L189.9 683.6 L189.1 690.9 L189.1 691.2 L188.6 698.2 L185.9 705.5 L181.8 712.2 L181.4 712.7 L174.7 720.0 L174.5 720.2 L167.3 722.7 L160.0 723.1 L152.7 723.0 L145.5 722.9 L138.2 722.5 L130.9 722.2 L123.6 722.3 L116.4 722.4 L109.1 722.2 L101.8 722.8 L98.4 727.3 L95.8 734.5 L94.5 735.8 L88.6 741.8 L87.3 742.5 L80.0 744.5 L72.7 744.1 L67.1 741.8 L65.5 740.6 L60.3 734.5 L58.2 731.1 L55.8 727.3 L50.9 721.9 L49.0 720.0 L43.6 716.3 L36.4 712.7 L36.3 712.7 L29.1 710.9 L21.8 710.9 L14.5 712.0 L11.6 712.7 L7.3 713.6 L0.0 715.1"/>
  <path class="contour" d="M218.2 834.4 L211.7 836.4 L210.9 836.7 L203.6 839.7 L196.4 842.7 L189.1 843.5 L188.0 843.6 L181.8 844.6 L174.5 845.8 L167.3 845.6 L160.0 847.0 L154.2 850.9 L152.7 852.1 L148.2 858.2 L152.0 865.5 L152.7 865.8 L160.0 868.2 L167.3 871.8 L168.5 872.7 L174.5 877.1 L177.5 880.0 L181.8 882.4 L189.1 883.6 L196.4 880.5 L197.3 880.0 L203.6 875.5 L210.9 873.4 L214.5 872.7 L218.2 871.8 L225.5 869.5 L232.7 867.2 L236.9 865.5 L240.0 862.9 L245.3 858.2 L246.0 850.9 L240.0 846.3 L236.6 843.6 L232.7 837.4 L232.2 836.4 L225.5 832.2 L218.2 834.4"/>
  <path class="contour" d="M0.0 867.3 L7.3 869.4 L14.5 872.0 L16.0 872.7 L21.8 877.7 L23.8 880.0 L21.8 884.1 L17.7 887.3 L14.5 889.0 L10.2 894.5 L8.3 901.8 L8.3 909.1 L12.8 916.4 L14.5 917.3 L21.8 918.8 L29.1 918.6 L36.4 918.9 L41.4 923.6 L43.6 925.3 L50.0 930.9 L50.9 931.7 L58.2 935.8 L59.9 938.2 L63.5 945.5 L65.5 952.5 L65.5 952.7 L66.2 960.0 L66.5 967.3 L65.7 974.5 L65.5 975.4 L64.0 981.8 L62.7 989.1 L60.9 996.4 L58.3 1003.6 L58.2 1003.9 L54.3 1010.9 L50.9 1015.9 L49.4 1018.2 L46.1 1025.5 L45.3 1032.7 L45.2 1040.0 L44.9 1047.3 L47.1 1054.5 L50.9 1060.0 L52.5 1061.8 L58.2 1068.5 L58.9 1069.1 L65.5 1075.1 L66.2 1076.4 L69.4 1083.6 L70.7 1090.9 L70.3 1098.2 L70.9 1105.5 L72.7 1109.0 L73.7 1112.7 L77.2 1120.0 L80.0 1124.9 L81.8 1127.3 L84.6 1134.5 L85.9 1141.8 L87.3 1144.6 L89.6 1149.1 L89.0 1156.4 L91.0 1163.6 L94.5 1169.1 L96.2 1170.9 L96.4 1178.2 L95.8 1185.5 L96.7 1192.7 L100.0 1200.0"/>
  <path class="contour" d="M363.6 877.9 L360.0 880.0 L356.4 886.1 L355.8 887.3 L356.4 891.7 L357.3 894.5 L363.6 897.5 L369.5 894.5 L370.9 893.4 L378.2 887.4 L378.3 887.3 L380.6 880.0 L378.2 878.9 L370.9 879.2 L363.6 877.9"/>
  <path class="contour" d="M436.4 906.3 L434.1 909.1 L429.1 913.6 L427.9 916.4 L428.1 923.6 L428.4 930.9 L428.7 938.2 L429.1 942.7 L436.4 938.2 L436.4 938.2 L436.4 937.8 L434.0 930.9 L433.6 923.6 L436.4 918.5 L436.6 916.4 L437.6 909.1 L436.4 906.3"/>
  <path class="contour" d="M400.0 929.8 L397.1 930.9 L392.7 933.1 L385.6 938.2 L385.8 945.5 L392.7 952.7 L392.7 952.8 L393.1 952.7 L400.0 949.9 L401.4 945.5 L403.2 938.2 L402.4 930.9 L400.0 929.8"/>
  <path class="contour contour-dashed" d="M567.3 324.8 L560.3 327.3 L560.0 327.3 L552.7 329.3 L545.5 331.2 L538.2 333.0 L532.8 334.5 L530.9 335.1 L523.6 337.9 L516.4 341.5 L515.8 341.8 L509.1 345.9 L503.7 349.1 L501.8 350.3 L494.5 354.3 L490.1 356.4 L487.3 357.6 L480.0 359.4 L472.7 359.8 L465.5 360.2 L458.2 361.4 L450.9 363.1 L448.1 363.6 L443.6 364.4 L436.4 365.4 L429.1 366.3 L421.8 366.7 L414.5 366.8 L407.3 366.7 L400.0 366.8 L392.7 367.7 L385.5 369.7 L382.8 370.9 L378.2 373.9 L372.2 378.2 L370.9 379.3 L364.6 385.5 L363.6 386.7 L359.6 392.7 L356.4 398.4 L355.4 400.0 L350.9 407.3 L349.1 409.3 L342.5 414.5 L341.8 414.9 L334.5 419.5 L331.9 421.8 L327.3 426.5 L325.3 429.1 L320.4 436.4 L320.0 436.9 L314.8 443.6 L312.7 445.7 L305.6 450.9 L305.5 451.0 L298.2 455.0 L292.7 458.2 L290.9 459.3 L284.4 465.5 L283.6 467.7 L282.0 472.7 L281.7 480.0 L281.7 487.3 L281.0 494.5 L279.0 501.8 L276.4 507.3 L274.9 509.1 L269.1 515.3 L268.3 516.4 L264.4 523.6 L261.8 530.1 L261.6 530.9 L259.2 538.2 L257.6 545.5 L257.8 552.7 L259.0 560.0 L260.1 567.3 L260.4 574.5 L258.9 581.8 L255.5 589.1 L254.5 590.6 L250.9 596.4 L247.7 603.6 L247.3 607.0 L246.7 610.9 L246.7 618.2 L246.6 625.5 L246.0 632.7 L243.9 640.0 L240.1 647.3 L240.0 647.4 L235.1 654.5 L232.7 658.2 L230.4 661.8 L227.6 669.1 L228.4 676.4 L231.8 683.6 L232.7 685.3 L236.2 690.9 L240.0 697.4 L240.4 698.2 L242.9 705.5 L245.7 712.7 L247.3 714.9 L253.9 720.0 L254.5 720.5 L261.8 723.3 L269.1 725.2 L276.4 725.8 L283.6 726.3 L289.4 727.3 L290.9 727.7 L298.2 728.9 L305.5 730.0 L312.7 734.1 L313.2 734.5 L320.0 741.0 L320.9 741.8 L326.4 749.1 L327.3 750.0 L334.5 754.8 L338.0 756.4 L341.8 758.2 L349.1 763.3 L349.6 763.6 L351.0 770.9 L349.1 775.4 L348.0 778.2 L345.2 785.5 L342.8 792.7 L341.8 795.9 L340.5 800.0 L337.9 807.3 L337.9 814.5 L335.8 821.8 L334.5 826.7 L333.9 829.1 L334.5 829.4 L341.8 831.2 L349.1 832.1 L356.4 833.0 L363.6 833.7 L370.9 832.8 L378.2 829.5 L379.1 829.1 L385.5 825.3 L392.7 822.7 L394.3 821.8 L400.0 816.7 L403.9 814.5 L407.3 812.4 L414.5 812.6 L421.8 811.9 L429.1 810.9 L436.4 812.3 L443.6 813.0 L450.9 813.3 L458.2 814.4 L460.0 814.5 L465.5 814.8 L472.7 815.0 L480.0 816.3 L487.3 817.3 L494.5 816.9 L501.8 816.3 L509.1 816.5 L516.4 816.7 L523.6 817.3 L530.9 820.2 L533.2 821.8 L538.2 825.1 L543.6 829.1 L545.5 830.2 L552.7 834.3 L556.6 836.4 L560.0 838.0 L567.3 841.4 L572.1 843.6 L574.5 844.7 L581.8 847.3 L589.1 849.3 L596.0 850.9 L596.4 851.0 L603.6 852.7 L610.9 854.5 L618.2 856.6 L623.3 858.2 L625.5 858.9 L632.7 861.0 L640.0 862.4 L647.3 863.4 L654.5 864.3 L661.8 865.3 L662.6 865.5 L669.1 867.3 L676.4 869.8 L683.6 872.6 L684.0 872.7 L690.9 875.5 L698.2 877.2 L705.5 877.5 L712.7 877.0 L720.0 876.0 L727.3 874.4 L732.6 872.7 L734.5 872.2 L741.8 870.9 L749.1 870.6 L756.4 870.9 L763.6 871.5 L770.9 872.2 L776.2 872.7 L778.2 872.9 L785.5 873.4 L792.7 873.3 L800.0 873.6 L807.3 874.6 L814.5 875.8 L821.8 877.1 L829.1 878.4 L836.4 879.8 L837.2 880.0 L843.6 881.6 L850.9 882.7 L858.2 882.7 L865.5 881.8 L872.7 880.4 L875.3 880.0 L880.0 879.4 L887.3 878.6 L894.5 877.8 L901.8 877.4 L909.1 877.5 L916.4 878.0 L923.6 879.2 L926.8 880.0 L930.9 881.1 L938.2 883.1 L945.5 885.3 L949.7 887.3 L952.7 889.3 L958.0 894.5 L960.0 896.7 L964.5 901.8 L967.3 903.8 L974.5 908.3 L976.1 909.1 L981.8 911.2 L989.1 914.0 L994.4 916.4 L996.4 917.1 L1003.6 919.9 L1010.9 922.6 L1014.9 923.6 L1018.2 924.4 L1025.5 925.8 L1032.7 926.7 L1040.0 927.3 L1047.3 927.5 L1054.5 927.6 L1061.8 927.3 L1069.1 926.6 L1076.4 926.0 L1083.6 925.5 L1090.9 925.3 L1098.2 925.4 L1105.5 926.0 L1112.7 926.7 L1120.0 927.5 L1127.3 928.2 L1134.5 928.2 L1141.8 927.3 L1149.1 926.1 L1156.4 925.1 L1163.6 924.5 L1169.5 923.6 L1170.9 923.4 L1178.2 921.1 L1185.5 917.9 L1188.8 916.4 L1192.7 914.7 L1200.0 912.1 L1207.3 909.9 L1211.4 909.1 L1214.5 908.5 L1221.8 907.7 L1229.1 907.2 L1236.4 906.1 L1243.6 903.5 L1246.9 901.8 L1250.9 898.5 L1256.4 894.5 L1258.2 893.1 L1265.5 888.8 L1269.7 887.3 L1272.7 886.3 L1280.0 884.9 L1287.3 883.9 L1294.5 882.8 L1301.8 881.2 L1306.6 880.0 L1309.1 879.4 L1316.4 877.7 L1323.6 876.4 L1330.9 875.9 L1338.2 876.5 L1345.5 877.2 L1352.7 876.8 L1360.0 875.3 L1367.3 872.9 L1367.5 872.7 L1374.1 865.5 L1374.5 864.5 L1376.4 858.2 L1377.7 850.9 L1379.2 843.6 L1378.1 836.4 L1374.5 831.9 L1372.4 829.1 L1367.3 824.3 L1364.6 821.8 L1360.0 817.8 L1356.2 814.5 L1352.7 810.8 L1348.8 807.3 L1345.5 802.7 L1342.9 800.0 L1339.2 792.7 L1338.2 789.5 L1337.2 785.5 L1334.6 778.2 L1330.9 774.0 L1328.3 770.9 L1323.6 768.1 L1316.9 763.6 L1316.4 763.4 L1309.1 760.7 L1301.8 757.5 L1299.2 756.4 L1294.5 754.9 L1287.3 752.9 L1280.0 751.1 L1272.8 749.1 L1272.7 749.1 L1265.5 746.1 L1258.5 741.8 L1258.2 741.7 L1250.9 739.0 L1243.6 736.5 L1236.9 734.5 L1236.4 734.4 L1229.1 733.2 L1221.8 731.3 L1214.5 729.0 L1209.8 727.3 L1207.3 726.5 L1200.0 724.4 L1192.7 722.2 L1185.5 720.1 L1184.8 720.0 L1178.2 718.1 L1170.9 716.5 L1163.6 715.2 L1156.4 714.2 L1149.1 713.2 L1144.0 712.7 L1141.8 712.6 L1134.5 712.6 L1133.7 712.7 L1127.3 713.7 L1120.0 715.4 L1112.7 716.9 L1105.5 717.9 L1098.2 718.1 L1090.9 717.2 L1083.6 715.8 L1076.4 714.1 L1069.1 712.8 L1067.8 712.7 L1061.8 712.3 L1054.9 712.7 L1054.5 712.8 L1047.3 713.8 L1040.0 715.3 L1032.7 717.6 L1025.5 718.6 L1018.2 718.8 L1010.9 718.5 L1003.6 717.5 L996.4 715.8 L989.1 713.4 L987.2 712.7 L981.8 710.9 L974.5 708.6 L967.3 706.7 L961.1 705.5 L960.0 705.3 L952.7 704.7 L945.5 704.8 L938.2 705.4 L937.9 705.5 L930.9 706.7 L923.6 708.1 L916.4 709.7 L909.1 711.5 L904.0 712.7 L901.8 713.4 L894.5 715.4 L887.3 717.6 L880.5 720.0 L880.0 720.5 L872.7 724.9 L865.5 726.1 L858.2 726.1 L850.9 725.8 L843.6 725.6 L836.4 725.6 L829.1 726.0 L821.8 726.6 L814.5 727.2 L809.0 727.3 L807.3 727.3 L806.8 727.3 L800.0 726.6 L792.7 724.7 L785.5 722.5 L778.2 721.2 L770.9 720.3 L767.3 720.0 L763.6 719.7 L756.4 718.5 L749.1 716.4 L741.8 713.3 L740.4 712.7 L734.5 710.6 L727.3 708.3 L720.0 706.3 L717.1 705.5 L712.7 704.0 L705.5 700.7 L701.7 698.2 L698.2 695.7 L692.8 690.9 L690.9 689.0 L684.9 683.6 L683.6 682.3 L676.9 676.4 L676.4 675.8 L669.1 669.6 L668.5 669.1 L661.8 664.0 L659.3 661.8 L654.5 658.4 L649.6 654.5 L647.3 653.1 L640.0 648.5 L638.8 647.3 L632.7 640.2 L632.6 640.0 L626.7 632.7 L625.5 631.6 L620.3 625.5 L618.2 622.9 L614.8 618.2 L610.9 613.9 L607.7 610.9 L603.6 607.5 L598.7 603.6 L596.4 601.5 L591.2 596.4 L589.1 593.7 L585.0 589.1 L584.3 581.8 L587.9 574.5 L589.1 573.0 L596.4 567.4 L596.5 567.3 L603.6 564.0 L609.8 560.0 L610.9 559.6 L618.2 556.6 L625.5 552.8 L625.7 552.7 L632.7 548.3 L636.5 545.5 L640.0 542.2 L644.3 538.2 L647.3 535.1 L652.1 530.9 L654.5 528.2 L660.2 523.6 L661.8 522.1 L669.1 518.4 L676.4 517.0 L683.6 516.4 L683.6 516.4 L690.9 515.0 L698.2 511.8 L701.5 509.1 L705.5 503.5 L706.3 501.8 L705.6 494.5 L705.5 494.1 L702.4 487.3 L701.6 480.0 L703.4 472.7 L705.5 465.7 L705.5 465.5 L705.5 458.2 L705.5 458.2 L703.5 450.9 L700.8 443.6 L703.1 436.4 L705.5 433.2 L709.0 429.1 L712.7 425.0 L715.8 421.8 L720.0 415.9 L720.9 414.5 L723.1 407.3 L720.0 401.9 L719.1 400.0 L712.7 393.3 L712.3 392.7 L705.5 387.2 L702.7 385.5 L698.2 381.5 L696.5 378.2 L695.6 370.9 L696.6 363.6 L698.2 356.4 L698.2 356.4 L698.2 352.1 L698.2 349.1 L691.1 341.8 L690.9 341.7 L683.6 338.6 L676.4 335.7 L673.1 334.5 L669.1 333.2 L661.8 331.2 L654.5 329.3 L647.3 327.4 L646.9 327.3 L640.0 325.3 L632.7 323.7 L625.5 322.6 L618.2 322.0 L610.9 321.7 L603.6 321.4 L596.4 320.9 L589.1 320.5 L581.8 320.9 L574.5 322.3 L567.3 324.8"/>
  <path class="contour contour-dashed" d="M152.7 959.4 L151.8 960.0 L152.7 963.0 L155.5 967.3 L160.0 974.4 L160.1 974.5 L167.2 981.8 L167.3 981.8 L174.5 982.3 L180.6 981.8 L181.8 981.6 L189.1 979.9 L194.4 974.5 L189.6 967.3 L189.1 967.1 L181.8 964.7 L174.5 962.8 L169.1 960.0 L167.3 959.6 L160.0 958.8 L152.7 959.4"/>
  <path class="contour" d="M574.5 355.7 L572.8 356.4 L567.3 358.2 L560.0 359.0 L552.7 359.0 L545.5 359.0 L538.2 359.4 L530.9 360.7 L523.6 363.3 L522.9 363.6 L516.4 367.4 L510.6 370.9 L509.1 371.9 L501.8 376.3 L498.1 378.2 L494.5 380.0 L487.3 382.4 L480.0 383.8 L472.7 385.0 L469.6 385.5 L465.5 386.2 L458.2 386.8 L450.9 388.0 L443.6 389.5 L436.4 391.0 L429.1 391.8 L421.8 391.9 L414.5 391.7 L407.3 392.3 L405.8 392.7 L400.0 395.1 L392.7 398.9 L390.9 400.0 L385.5 403.3 L381.2 407.3 L378.2 410.3 L374.7 414.5 L370.9 418.0 L366.7 421.8 L363.6 423.9 L356.4 428.5 L355.3 429.1 L349.1 433.2 L344.7 436.4 L341.8 438.8 L337.4 443.6 L334.5 447.4 L332.1 450.9 L327.3 455.9 L324.5 458.2 L320.0 461.2 L312.7 465.1 L312.0 465.5 L305.5 471.8 L304.7 472.7 L304.7 480.0 L305.5 481.8 L307.8 487.3 L311.4 494.5 L312.7 499.1 L313.5 501.8 L313.0 509.1 L312.7 511.0 L311.9 516.4 L310.4 523.6 L308.0 530.9 L306.0 538.2 L305.5 543.0 L305.0 545.5 L303.9 552.7 L303.2 560.0 L303.0 567.3 L301.8 574.5 L298.6 581.8 L298.2 582.5 L294.4 589.1 L290.9 596.3 L290.9 596.4 L288.3 603.6 L286.9 610.9 L285.3 618.2 L283.6 624.8 L283.5 625.5 L281.5 632.7 L279.4 640.0 L276.5 647.3 L276.4 647.5 L273.1 654.5 L270.5 661.8 L269.1 667.9 L268.8 669.1 L267.7 676.4 L269.1 680.0 L271.0 683.6 L276.4 688.5 L283.6 690.7 L285.0 690.9 L290.9 691.8 L298.2 692.4 L305.5 693.7 L312.2 698.2 L312.7 698.5 L320.0 704.3 L321.7 705.5 L327.3 708.8 L334.5 712.7 L334.5 712.7 L341.8 716.6 L349.1 718.3 L356.4 718.7 L360.2 720.0 L363.6 720.9 L370.9 723.1 L378.2 722.7 L385.5 721.7 L392.7 721.5 L400.0 721.0 L407.3 720.6 L414.5 721.0 L421.8 721.4 L428.4 720.0 L429.1 719.8 L436.4 716.2 L441.8 712.7 L443.6 711.6 L450.9 707.4 L454.0 705.5 L458.2 703.4 L465.5 699.7 L468.0 698.2 L472.7 696.1 L480.0 691.3 L480.4 690.9 L487.3 685.0 L488.6 683.6 L494.5 678.1 L496.1 676.4 L501.1 669.1 L501.8 667.3 L503.9 661.8 L505.8 654.5 L508.1 647.3 L509.1 645.5 L512.8 640.0 L516.4 635.8 L519.3 632.7 L523.6 628.9 L527.6 625.5 L530.9 623.0 L536.9 618.2 L538.2 617.2 L545.5 611.6 L546.2 610.9 L549.3 603.6 L545.5 599.3 L542.5 596.4 L540.3 589.1 L541.1 581.8 L545.5 576.7 L547.3 574.5 L551.6 567.3 L552.7 566.2 L559.6 560.0 L560.0 559.7 L567.3 554.2 L569.4 552.7 L574.5 549.0 L581.0 545.5 L581.8 544.9 L589.1 541.3 L596.4 539.2 L600.7 538.2 L603.6 537.1 L610.9 533.8 L615.2 530.9 L614.1 523.6 L610.9 521.6 L605.4 516.4 L603.6 511.4 L603.0 509.1 L603.6 508.3 L610.5 501.8 L610.9 501.5 L618.2 497.9 L625.5 495.0 L626.5 494.5 L632.7 491.6 L640.0 489.3 L645.8 487.3 L647.3 486.5 L654.5 482.5 L658.4 480.0 L661.8 474.9 L663.0 472.7 L661.8 469.6 L658.0 465.5 L654.5 463.6 L647.3 460.5 L644.7 458.2 L640.0 451.9 L639.2 450.9 L633.3 443.6 L632.7 443.0 L627.1 436.4 L630.5 429.1 L632.7 426.7 L637.1 421.8 L640.0 418.5 L643.6 414.5 L647.3 409.7 L649.5 407.3 L654.5 402.1 L657.3 400.0 L661.8 396.8 L666.3 392.7 L669.1 388.0 L670.1 385.5 L669.1 381.8 L666.4 378.2 L662.1 370.9 L661.8 370.4 L656.6 363.6 L654.5 362.4 L647.3 361.1 L640.0 362.4 L637.4 363.6 L632.7 367.3 L628.7 370.9 L625.5 373.5 L618.2 374.7 L611.9 370.9 L610.9 369.8 L607.9 363.6 L603.6 356.8 L603.1 356.4 L596.4 353.0 L589.1 352.3 L581.8 353.4 L574.5 355.7"/>
  <path class="contour" d="M989.1 748.9 L985.8 749.1 L981.8 749.4 L974.5 750.2 L967.3 751.4 L960.0 752.9 L952.7 754.6 L945.5 756.4 L945.5 756.4 L938.2 759.1 L930.9 762.2 L927.2 763.6 L923.6 764.5 L916.4 765.4 L909.1 765.6 L901.8 765.5 L894.5 765.2 L887.3 764.9 L880.0 764.7 L872.7 764.4 L866.0 763.6 L865.5 763.6 L858.2 762.5 L850.9 761.5 L843.6 760.6 L836.4 760.1 L829.1 760.2 L821.8 760.6 L814.5 761.1 L807.3 761.6 L800.0 762.1 L792.7 762.6 L785.5 762.9 L778.2 763.3 L773.4 763.6 L770.9 763.8 L763.6 764.3 L756.4 764.7 L749.1 764.9 L741.8 765.0 L734.5 766.2 L727.3 769.3 L724.7 770.9 L720.0 773.9 L712.7 777.4 L710.0 778.2 L705.5 779.4 L698.2 780.0 L690.9 779.4 L685.0 778.2 L683.6 777.9 L676.4 776.3 L669.1 775.6 L661.8 776.9 L659.2 778.2 L654.5 781.3 L648.5 785.5 L647.3 786.5 L640.0 791.0 L636.2 792.7 L632.7 794.0 L625.5 796.5 L618.2 799.3 L617.0 800.0 L610.9 803.3 L606.7 807.3 L603.6 813.2 L603.1 814.5 L603.6 815.5 L609.4 821.8 L610.9 822.6 L618.2 825.8 L625.5 828.9 L625.8 829.1 L632.7 832.4 L640.0 835.9 L641.0 836.4 L647.3 839.5 L654.5 842.6 L658.6 843.6 L661.8 844.2 L669.1 845.1 L676.4 845.5 L683.6 845.6 L690.9 845.2 L698.2 844.2 L702.3 843.6 L705.5 843.2 L712.7 842.4 L720.0 841.8 L727.3 841.5 L734.5 841.4 L741.8 841.4 L749.1 841.3 L756.4 840.6 L763.6 839.4 L770.9 838.1 L778.2 836.9 L784.1 836.4 L785.5 836.3 L789.5 836.4 L792.7 836.5 L800.0 838.0 L807.3 840.5 L814.5 843.0 L816.8 843.6 L821.8 845.4 L829.1 846.8 L836.4 846.8 L843.6 845.3 L848.2 843.6 L850.9 842.8 L858.2 840.1 L865.5 838.0 L872.7 836.7 L880.0 836.7 L887.3 838.0 L894.5 840.3 L901.8 842.8 L904.5 843.6 L909.1 845.6 L916.4 848.3 L923.6 850.8 L923.9 850.9 L930.9 853.1 L938.2 854.9 L945.5 856.4 L951.2 858.2 L952.7 858.7 L960.0 862.3 L965.6 865.5 L967.3 866.4 L974.5 871.3 L976.5 872.7 L981.8 877.3 L985.0 880.0 L989.1 883.8 L993.2 887.3 L996.4 889.4 L1003.6 893.3 L1006.6 894.5 L1010.9 896.1 L1018.2 898.0 L1025.5 899.8 L1032.7 901.2 L1038.4 901.8 L1040.0 902.0 L1047.3 902.3 L1054.5 902.1 L1059.0 901.8 L1061.8 901.7 L1069.1 901.4 L1076.4 901.4 L1083.6 901.6 L1089.3 901.8 L1090.9 901.9 L1098.2 902.4 L1105.5 902.9 L1112.7 903.1 L1120.0 902.8 L1126.3 901.8 L1127.3 901.6 L1134.5 899.8 L1141.8 899.7 L1149.1 900.2 L1156.4 899.2 L1163.6 896.8 L1169.0 894.5 L1170.9 893.5 L1178.2 889.2 L1181.1 887.3 L1185.5 884.1 L1190.9 880.0 L1192.7 878.2 L1198.3 872.7 L1200.0 870.8 L1204.8 865.5 L1207.3 861.7 L1209.2 858.2 L1209.5 850.9 L1207.3 843.9 L1207.2 843.6 L1203.2 836.4 L1201.2 829.1 L1203.8 821.8 L1207.3 818.6 L1211.5 814.5 L1214.5 809.6 L1215.9 807.3 L1217.0 800.0 L1220.5 792.7 L1221.8 789.7 L1224.2 785.5 L1221.8 778.5 L1221.7 778.2 L1214.5 772.1 L1212.8 770.9 L1207.3 768.1 L1200.0 764.5 L1198.4 763.6 L1192.7 760.9 L1185.5 757.2 L1183.7 756.4 L1178.2 754.0 L1170.9 751.4 L1163.6 749.5 L1162.1 749.1 L1156.4 747.9 L1149.1 746.6 L1141.8 745.8 L1134.5 745.7 L1127.3 746.4 L1120.0 748.0 L1116.6 749.1 L1112.7 751.9 L1105.5 755.8 L1102.1 756.4 L1098.2 757.0 L1090.9 757.3 L1083.6 757.2 L1076.4 757.2 L1069.1 757.0 L1061.8 756.6 L1060.2 756.4 L1054.5 755.6 L1047.3 753.9 L1040.0 752.5 L1032.7 751.3 L1025.5 750.2 L1018.2 749.4 L1010.9 749.1 L1010.2 749.1 L1003.6 749.0 L996.4 748.9 L989.1 748.9"/>
  <path class="contour" d="M487.3 406.5 L483.7 407.3 L480.0 408.8 L472.7 414.0 L471.7 414.5 L465.5 419.1 L460.6 421.8 L458.2 423.4 L450.9 428.4 L449.7 429.1 L443.6 431.0 L436.4 433.0 L429.1 434.9 L421.8 436.3 L421.7 436.4 L414.5 437.1 L407.3 438.1 L400.0 439.8 L392.7 442.9 L391.1 443.6 L385.5 445.9 L378.2 447.8 L370.9 449.9 L368.9 450.9 L363.6 454.2 L359.7 458.2 L356.4 462.0 L353.2 465.5 L349.1 469.3 L345.7 472.7 L341.8 479.1 L341.2 480.0 L339.8 487.3 L339.2 494.5 L337.4 501.8 L334.8 509.1 L334.5 509.6 L331.5 516.4 L328.1 523.6 L327.3 525.6 L325.3 530.9 L323.4 538.2 L322.9 545.5 L323.6 552.7 L325.1 560.0 L326.3 567.3 L326.3 574.5 L324.6 581.8 L322.3 589.1 L320.9 596.4 L320.3 603.6 L320.3 610.9 L320.5 618.2 L321.1 625.5 L322.3 632.7 L323.9 640.0 L325.8 647.3 L327.3 649.9 L331.3 654.5 L334.5 657.0 L340.5 661.8 L341.8 662.8 L349.1 667.5 L353.4 669.1 L356.4 670.4 L363.6 669.8 L369.5 669.1 L370.9 669.0 L371.5 669.1 L378.2 671.2 L385.5 673.2 L392.7 673.5 L400.0 673.0 L407.3 672.4 L414.5 671.0 L419.1 669.1 L421.8 667.8 L429.1 666.4 L436.4 663.2 L437.9 661.8 L443.6 656.5 L445.5 654.5 L450.9 647.6 L451.2 647.3 L457.0 640.0 L458.2 638.9 L465.5 633.0 L465.7 632.7 L472.7 628.7 L477.8 625.5 L480.0 624.0 L487.3 619.6 L489.3 618.2 L494.5 611.7 L495.4 610.9 L497.9 603.6 L500.9 596.4 L501.8 594.9 L505.5 589.1 L509.1 584.6 L510.8 581.8 L516.0 574.5 L516.4 574.2 L521.8 567.3 L523.6 565.7 L529.9 560.0 L530.9 559.0 L538.1 552.7 L538.2 552.6 L544.0 545.5 L545.5 542.3 L547.7 538.2 L550.5 530.9 L552.7 527.8 L555.9 523.6 L560.0 519.3 L562.7 516.4 L566.3 509.1 L567.3 506.8 L569.6 501.8 L571.7 494.5 L574.5 488.6 L575.1 487.3 L581.8 480.3 L582.1 480.0 L587.0 472.7 L587.9 465.5 L587.4 458.2 L586.8 450.9 L585.0 443.6 L581.8 438.2 L580.3 436.4 L574.5 430.4 L573.4 429.1 L569.0 421.8 L567.3 419.0 L563.3 414.5 L560.0 412.3 L552.7 409.9 L546.4 407.3 L545.5 406.6 L538.2 404.2 L530.9 405.4 L525.1 407.3 L523.6 407.6 L516.4 408.4 L509.1 408.3 L501.8 407.6 L499.8 407.3 L494.5 406.6 L487.3 406.5"/>
  <path class="contour" d="M843.6 790.8 L840.1 792.7 L836.4 797.7 L831.8 800.0 L829.1 803.8 L827.3 807.3 L829.1 807.6 L836.4 809.9 L843.6 812.8 L848.3 814.5 L850.9 814.9 L858.2 815.6 L865.5 815.9 L872.7 816.1 L880.0 816.5 L887.3 817.0 L894.5 817.3 L901.8 817.6 L909.1 818.1 L916.4 819.5 L921.8 821.8 L923.6 822.4 L930.9 824.6 L938.2 826.6 L945.5 828.3 L948.1 829.1 L952.7 830.4 L960.0 833.0 L967.3 835.8 L968.5 836.4 L974.5 839.3 L981.5 843.6 L981.8 843.8 L989.1 849.2 L991.7 850.9 L996.4 854.3 L1002.4 858.2 L1003.6 859.0 L1010.9 862.7 L1017.9 865.5 L1018.2 865.5 L1025.5 867.9 L1032.7 870.7 L1038.2 872.7 L1040.0 873.2 L1047.3 875.1 L1054.5 876.8 L1061.8 878.0 L1069.1 878.7 L1076.4 878.8 L1083.6 878.8 L1090.9 878.8 L1098.2 878.5 L1105.5 877.2 L1112.5 872.7 L1112.7 872.6 L1120.0 869.4 L1127.3 865.9 L1128.0 865.5 L1134.5 859.7 L1135.9 858.2 L1134.5 856.6 L1127.3 852.0 L1124.7 850.9 L1120.0 849.0 L1112.7 845.5 L1108.8 843.6 L1105.5 841.3 L1098.2 837.4 L1096.1 836.4 L1090.9 833.6 L1083.9 829.1 L1083.6 828.9 L1076.4 822.1 L1076.1 821.8 L1069.3 814.5 L1069.1 814.3 L1061.8 808.4 L1060.1 807.3 L1054.5 804.7 L1047.3 802.5 L1040.0 801.1 L1032.7 800.3 L1030.3 800.0 L1025.5 799.4 L1018.2 798.0 L1010.9 795.7 L1003.6 793.0 L1002.9 792.7 L996.4 790.7 L989.1 789.7 L981.8 790.8 L978.0 792.7 L974.5 793.9 L967.3 795.5 L960.0 796.0 L952.7 795.7 L945.5 795.0 L938.2 794.0 L930.9 793.2 L928.3 792.7 L923.6 791.9 L916.4 791.2 L909.1 791.1 L901.8 791.3 L894.5 791.6 L887.3 791.9 L880.0 791.8 L872.7 791.3 L865.5 790.6 L858.2 790.0 L850.9 789.8 L843.6 790.8"/>
  <path class="contour" d="M458.2 450.7 L455.8 450.9 L450.9 451.4 L443.6 452.2 L436.4 453.0 L429.1 454.1 L421.8 455.5 L414.5 457.2 L411.2 458.2 L407.3 459.3 L400.0 461.7 L392.7 464.5 L390.3 465.5 L385.5 467.7 L378.2 471.3 L376.0 472.7 L370.9 478.0 L369.3 480.0 L368.1 487.3 L367.7 494.5 L366.6 501.8 L363.6 508.1 L363.1 509.1 L357.1 516.4 L356.4 517.1 L350.4 523.6 L349.1 525.3 L345.1 530.9 L341.8 538.1 L341.8 538.2 L341.0 545.5 L341.8 552.7 L341.8 553.0 L343.6 560.0 L345.2 567.3 L345.7 574.5 L344.1 581.8 L341.8 588.5 L341.6 589.1 L339.8 596.4 L338.8 603.6 L339.5 610.9 L341.8 618.1 L341.8 618.2 L346.7 625.5 L349.1 630.0 L351.2 632.7 L356.4 639.5 L357.0 640.0 L363.6 643.4 L370.9 643.9 L378.2 642.3 L385.5 642.3 L392.7 641.0 L395.4 640.0 L400.0 638.2 L407.3 635.2 L412.1 632.7 L414.5 631.5 L421.8 626.8 L423.5 625.5 L429.1 621.4 L433.3 618.2 L436.4 615.9 L443.6 611.1 L443.9 610.9 L450.9 607.0 L457.5 603.6 L458.2 603.3 L465.5 598.9 L468.6 596.4 L472.7 593.4 L477.5 589.1 L480.0 586.8 L485.2 581.8 L487.3 579.3 L491.2 574.5 L494.5 570.7 L497.3 567.3 L501.8 562.5 L504.3 560.0 L509.1 553.7 L509.9 552.7 L513.7 545.5 L515.2 538.2 L516.4 534.6 L517.8 530.9 L523.6 524.1 L524.0 523.6 L529.9 516.4 L530.9 514.8 L534.4 509.1 L537.5 501.8 L538.2 498.9 L539.1 494.5 L539.9 487.3 L538.2 483.3 L536.1 480.0 L530.9 475.0 L526.1 472.7 L523.6 471.3 L516.4 467.9 L512.3 465.5 L509.1 460.0 L508.2 458.2 L501.8 452.3 L497.2 450.9 L494.5 450.5 L487.3 450.0 L480.0 449.7 L472.7 449.7 L465.5 450.1 L458.2 450.7"/>
  <path class="contour contour-major" d="M429.1 470.8 L423.7 472.7 L421.8 473.6 L414.5 477.6 L410.0 480.0 L407.3 481.6 L401.2 487.3 L400.8 494.5 L400.2 501.8 L400.0 502.6 L397.6 509.1 L393.4 516.4 L392.7 517.3 L387.2 523.6 L385.5 525.6 L380.3 530.9 L378.2 533.8 L374.8 538.2 L371.9 545.5 L371.8 552.7 L374.8 560.0 L378.2 566.8 L378.7 567.3 L385.5 571.4 L389.5 574.5 L392.7 576.6 L400.0 581.2 L401.5 581.8 L407.3 584.3 L414.5 585.8 L421.8 586.3 L429.1 586.0 L436.4 584.5 L443.6 582.4 L445.2 581.8 L450.9 579.7 L458.2 576.3 L460.7 574.5 L465.5 571.2 L469.5 567.3 L472.7 563.6 L476.0 560.0 L480.0 554.2 L481.0 552.7 L484.3 545.5 L486.8 538.2 L487.3 536.3 L488.4 530.9 L488.6 523.6 L488.9 516.4 L489.8 509.1 L491.0 501.8 L490.5 494.5 L487.3 487.8 L487.1 487.3 L482.1 480.0 L480.0 478.3 L472.7 474.1 L469.9 472.7 L465.5 471.1 L458.2 469.7 L450.9 469.2 L443.6 469.0 L436.4 469.4 L429.1 470.8"/>
</svg>
